<svg xmlns="http://www.w3.org/2000/svg" id="Modo_de_aislamiento" data-name="Modo de aislamiento" viewBox="0 0 1946.44 1364.07"><defs><style>.cls-1{fill:#89594f}.cls-4{fill:#eb7575}.cls-10{fill:#789e5a}</style></defs><path d="M1944.28 611.48C2001.69 533.98 899.69 76.1 865.54 76.1c-198.34 20.53-853 160.65-741.93 350.78-12.59 88.05 1727.96 309.69 1820.67 184.6Z" class="cls-1"/><path d="M2457.58 1086.32s-1.1 76-2.73 184.09c-.57 39.1-1.35 82.86-1.92 128.52-1.1 76.34-2.47 158.68-3.82 236.64-.28 30.06-.82 59.89-1.38 88.06-.54 34.75-.84 67.85-1.37 97.93l.29 17.23c-102.59 1.1-198.61-11.49-301.18-17.23-499.75-49.23-1026.3-43.47-1513.48-181.89 0 0-36.92-558.28 4.93-738Z" style="fill:#ac6a61" transform="translate(-513.31 -474.78)"/><path d="M1941.54 795.63c-.57 39.1-1.35 82.86-1.92 128.52-98.75 1.39-233-12.29-317.57-20-258.49-17.77-1262.22-156.89-1511.1-217.43l10.2-91.62c240.71 23.76 481.39 71.36 722.14 101.17 258.76 35.56 514.24 83.16 775.74 89.19 88.66.04 219.66.04 322.51 10.17Zm-5.74 365.16c-.28 30.06-.82 59.89-1.38 88.06-97.66-.53-222.66-4.37-312.37-17.76-267.54-38.57-538.06-38.57-805.57-80.17-225.67-35.55-469.39-83.16-686.3-154.53l-12-104c246.72 74.15 497.84 135.14 755 166.32 254.67 30.94 499.2 43.22 749 64 99.42 5.51 215.13 20.85 313.62 38.08Z" style="fill:#ffe7be"/><path d="M730.42 393.08c-53.51-47.57-17.86-121.86 56.48-118.86 83.2 3 112.91 112.93 26.72 133.72-23.75 6-71.32 8.93-83.2-14.84m523.07 16.51c-47.54-41.87 20.79-104.2 65.38-110.16 80.24-5.94 92.14 113.16 11.9 133.95-26.76 5.93-65.39 3-77.28-23.79m-766.8-28.45c-77.27 8.93-50.53-133.71 26.74-124.81 83.24 8.93 62.42 133.53-26.74 124.81m591.87 85.14c-58.58-7.36-66.2-88.42-18.31-117.16 91.48-54.86 150 128.13 18.31 117.16m519.67-22.7c-50.51-20.8-38.6-101 8.93-118.88 80.26-32.69 157.53 77.27 80.26 124.81-29.73 17.86-71.33 14.86-95.12-8.93" class="cls-4"/><path d="M1487.69 472.6c-32.7 8.9-59.45-32.71-53.52-62.4 14.89-89.19 175.38-47.55 127.82 32.68-14.87 23.76-47.55 26.76-74.3 29.72m-416-225.15c-38.6-17.85-47.53-65.37-17.82-95.12 56.48-56.47 184.26 20.82 112.94 86.17-26.75 26.78-62.42 23.81-95.12 9" class="cls-4"/><path d="M930.54 85.34c-23.92 44.45-164.12 37.59-212 44.45-143.61 27.36-297.48 75.23-424 157.29-54.7 37.61-153.12 89.08-164.11 160.68-24.13 157.18 13.68 427.4 0 636-3.42 34.17-1.14 99.13-38.76 106C5.06 1198.88.49 1098.59.49 1039.32c0-41 18.24-68.38 22.8-104.86 0-41-27.35-73-22.8-118.52 4.57-36.5 41-63.84 41-100.31 0-45.59-31.9-63.81-22.79-114 4.56-18.23 36.47-31.89 36.47-54.7 4.57-18.22-31.91-91.76-31.91-110s54.69-57.53 31.91-98.56c-20.48-58.15 54.76-88.91 102.63-75.24 20.52-71.81 75.22-61.53 133.35-82.06 65-20.5 99.15-71.78 167.55-85.45 34.17-6.86 61.53-6.86 95.73-20.53 30.76-17.11 58.13-47.86 92.31-61.56 54.73-17.08 126.52 3.42 184.64-10.25 65-10.25 109.42 0 109.42 82.06" class="cls-1"/><path d="M1365.56 734.1c-64.94-24-139.39-7.18-187 28.47 5.66-123.57 103.75-135.46 163.18-99.81-41.17-73.39 72.73-155.38 111.36-131.59 18.18 54.33-46 93-51.92 146.45 44.59-29.69 145.63-17.82 136.72 53.51-62.4 3-115.91 47.52-172.39 3" style="fill:#a2cb86" transform="translate(-513.31 -474.78)"/><path d="M960.69 349.88c-72.72 2.36-90.54-102.43-25.18-120.26 98.04-29.74 118.86 117.6 25.18 120.26" class="cls-4"/><path d="M140.98 299.71c-.06.35-5.28-.92-12 0-6.75.18-14.45 2.91-20.1 4.92-5.48 2.39-12.9 5.3-17.51 10-5 4.16-7.74 8.85-8 8.66-.53.48-8.37-2.78-8.22-3.65.29.19 1.37-6.28 6.14-13.46 4.29-7.7 13.46-14.46 21.33-17.77 8-2.86 19-3.84 27.26-1.78 8.34 1.33 13.8 5 13.85 4.59.57 1-1.91 8.12-2.75 8.49Zm249.71-119.67s-3.82 1.43-10.14 3.76a230.8 230.8 0 0 0-24.5 11.28c-19.06 9.94-43.79 24-65.87 29.38-5.39 1.54-11.39 2.28-17.45 3.44-4.51.64-11.63 2.39-17.31 3.45-12.08 2.27-23.6 4.84-33.06 8.58-9.81 3.34-16 9.27-20.23 13.69-2.07 2.26-3 4.67-4 6l-1.4 2.28c-1.14 1.7-9.16-1.11-8.3-3.44 0 0 .46-1.06 1.31-3s1.86-4.87 4.07-8c4.42-6.14 12.1-14.65 23-19.55 10.56-5.38 23.06-9.22 34.92-12.26 6.28-1.59 11-3.18 18.16-4.61 5.5-1.3 10.92-2.07 15.83-3.52 19.84-4.67 44-16 64.87-24.48a212 212 0 0 1 26.73-9.11c6.91-1.64 11.08-2.65 11.08-2.65 2.49.26 4.21 7.59 2.29 8.76Zm176.23-75.39a154.53 154.53 0 0 0-23.37 7.52c-13.52 5.73-30.23 12.8-43.29 18.31-26.64 10-68.45 25.69-68.45 25.69-1.47.48-5.23-7.15-4-8.05 0 0 9.64-6 22.77-13a478.89 478.89 0 0 1 43.11-20.8 376.58 376.58 0 0 1 45.87-14.67c7.63-1.46 13.76-3.21 19-3.47 5.07-.35 8.14-.53 8.14-.53 1.71.68 1.53 8.21.22 9Zm292.36-71.7-11.76.26c-7.32 0-17.56.4-29.21 1.19-23.3 1.06-52 4.53-74.48 7.08-22.31 3.15-51 6.62-73.33 12.58-5.61 1.4-10.89 2.7-15.64 3.87l-12.17 4.13-11 3.73c-2.32.69-5.91-7-3.78-8.18l11-5.09c3.43-1.56 7.57-3.47 12.2-5.59 4.73-1.8 10.08-3.52 15.75-5.48 22.57-8.23 51.83-13.93 74.83-17.23 23.09-2.54 52.69-4 76.45-2.91 11.87.23 22.29.9 29.72 1.67s11.91 1 11.91 1c2.4.97 1.92 8.49-.49 8.97ZM55.69 454.01c.34 0-2.64-5.8-3.08-14.49-.86-8.93 3.07-19.52 7.09-26.25s10.76-13.43 15.09-18.7c4.76-5.25 6.89-9.7 7.19-9.67.48-.56 8.57 2.07 8.5 2.94-.2-.24-1 6.44-4.46 13.59-3.29 7.47-8.07 15.31-11.48 21s-7.69 12-8.82 18.14c-1.51 6.07-1 11.42-1.28 11.39-.75.86-8.04 2.79-8.75 2.05Zm11.73 197.07c.36-.16-4.51-4.42-7.65-12.34-4-7.82-3.89-18.94-2.41-27 2.24-7.81 7-16.92 12.17-22.78a61.89 61.89 0 0 1 6.57-7.2c1.73-1.67 2.78-2.7 2.78-2.7.64-.53 7.24 4.84 7 5.59 0 0-.59 1.21-1.55 3.23a77.11 77.11 0 0 0-3.62 7.92c-3 6.25-4.77 14.25-6.46 20-1 5.78-3.15 13.27-1.86 19.37.44 6.19 2.86 10.86 2.53 11-.4 1.1-6.62 5.34-7.5 4.91Zm-7.04 222.85c.48-.41-11.42-5.23-20-20.77a48.79 48.79 0 0 1-4.8-27.15c.66-9.4 3.27-17.88 5.74-25 5.15-14.17 13.76-30.3 18.06-43.66a92.35 92.35 0 0 0 3.74-16.88c.11-4.29.19-6.88.19-6.88.11-1.41 8.5-2.81 8.91-1.17 0 0 .45 3 1.19 8.08a92.15 92.15 0 0 1-1.26 20c-2.76 15.66-9.8 33.31-14.44 46.41-4.94 13-9.9 29.35-5.26 41 1.12 2.9 2.1 5.73 3.92 7.89 1.57 2.28 2.77 4.51 4.48 5.91l4.87 5c.56 1.62-3.73 7.82-5.34 7.22Zm-4.24 251.46-8.14-7a72.41 72.41 0 0 1-15.89-22.17c-10.2-20.67-6.49-49.33-1.16-68.32 5.36-19.54 15-42.55 20.15-61.35a165.39 165.39 0 0 0 4.45-23.72c.13-6 .21-9.6.21-9.6.13-2 8.57-3 8.95-.91 0 0 .43 4 1.13 10.69a155.35 155.35 0 0 1-1.89 26.32c-3.42 20.63-11.27 44.76-16.18 63.13-5.13 18.2-9.88 41.79-3.42 58.93a64 64 0 0 0 11.2 20c4 4.47 6.43 7.15 6.43 7.15.81 2.06-3.89 7.95-5.84 6.85Zm732.17-675.35-107.37-8.14-48.48-3.92c-16.62-1.74-33.69-3.52-50.7-5.32-34-3.81-67.79-7.58-97.47-10.89s-63.38-8.29-97.37-11.84-68.23-7.41-98.67-10.71l-107.1-12.2c-6.37-.8-5.52-9.27.68-9l107.62 8 99.17 7.92c34.17 2.73 68 7.13 97.71 10.44 29.68 3.73 63.48 8 97.49 12.29l50.6 6.7c16.53 1.85 32.61 3.66 47.79 5.38l107.33 12.29c6.24 1.58 5.03 9.02-1.23 9Zm676.71 89.82-113.43-17.72c-32.28-5.33-68.58-10.39-104.62-15.84-36-5.62-71.88-10.7-103.34-15-62.82-10.12-143.31-19.31-208.15-26.31-65-3.84-114.26-6.72-114.26-6.72-6.82-.48-6.6-9 0-9l115.2 2.59c65.33 4.93 146.66 12.11 209.65 22.17 31.61 4.38 67.47 10 103.35 16.4s72.1 12.34 104.17 18.73l112.77 21.82c6.56 2.04 5.33 9.49-1.34 8.88Zm408.97 45.9s-7.12-.13-18.94-.39c-5.93-.16-13-.32-21-.53s-16.68-1.7-26-2.65c-37.57-3.66-83.12-13.14-118.63-20.35-35.41-6.94-80.4-17.45-117-19.86-9.15-.69-17.77-2.1-25.49-2.1-7.76.19-14.65.32-20.41.43-11.55.18-18.5.32-18.5.32-3.86 0-4.84-8.45-1-9l18.94-1.64 21-1.75c8-.5 16.83.37 26.29.56 38 .42 84 9.06 119.78 15.94 35.56 7.29 80.43 18.79 116.85 24.37 9.11 1.46 17.64 3.34 25.38 4.14l20.41 1.8 18.48 1.69c3.68 1.13 3.68 8.68-.16 9.02Z" style="fill:#d0a48b"/><path d="m805.2 120.78-30.32 9.8c-9.44 3.16-20.86 6.49-33.48 11s-26.61 9.73-41.52 15.16c-59.88 21.4-135.66 44.47-192.89 66.67-29.22 9.77-60.94 24.6-93.52 38-32.32 13.85-63.91 30.3-93.28 43.09s-55.78 23-75.82 27.15c-5 1.14-9.34 2.47-13.32 3.1-4 .45-7.47.88-10.27 1.22l-8.67 1c-6.83.74-6.89-7.81-.79-8.92 0 0 2.89-.48 8.18-1.33l9.64-1.53c3.76-.72 8-2.2 12.66-3.48 19-4.66 44.43-15.62 72.86-29.11s59.65-30.93 92.12-45.77c32.62-14.3 64.59-29.82 94.12-39.73 58.22-22.49 134.36-43.41 194.78-62.8l42.09-13.75c12.83-4.08 24.51-7 34.13-9.8l30.9-8.66c6.55-1.03 8.39 6.28 2.4 8.69ZM165.83 318.92c-.21-.14 1.32-3.42 1.67-7.79.86-4.27-.17-9.62-.33-13.54-.4-4-.53-9.43-1.9-13.66-.91-4.45-2.94-7.29-2.75-7.47-.13-.51 5.83-6.57 6.45-6.28-.28.13 4.23 2.41 7.86 7.5a36.5 36.5 0 0 1 7.7 18.4c.31 6.18-1.1 14.23-4.7 19.61-3 5.56-7 8.42-6.74 8.52-1.05.01-7.03-4.6-7.26-5.29Zm431.46-200.47s-1-3.36-2.63-7.34a93.5 93.5 0 0 0-5.56-11.28c-1.47-3.1-3.12-7-5.64-9.61-2.21-3-5.17-4.35-5-4.59-.31-.31 1.67-8.6 2.29-8.66-.12.27 4.41-.32 9.88 2.2a27.8 27.8 0 0 1 14 12.72c2.72 5.11 3.42 12.15 3.06 17.45a48.23 48.23 0 0 1-1.4 9.06c-.87.53-8.41.48-9 .05ZM113.34 555.83a69.32 69.32 0 0 1-8.2 3.44c-4.8 1.7-11.32 3.29-16.86 2.73a31.1 31.1 0 0 1-16.9-7.28c-4.59-3.66-6.39-7.63-6.55-7.45-.3-.53 5.79-6.48 6.29-6.43.1-.19 2.92 1.67 6.77 2.44 3.69 1.13 8.25 1.11 12 1.37 7.18 1.06 21.73 2.33 21.73 2.33.62.8 2.07 8.24 1.72 8.85Zm3.09-171.43s-2.38-1.27-5.31-2.81a11.45 11.45 0 0 0-4.61-1.75c-1.63-.4-2.82-1.22-4.21-1.62l-15.53-6.67c-.36-.21-.38-8.71 0-9 0 0 3.07-.85 7.39-1.56 4.18-1.17 10.14-.11 14.5 1 4 2.18 9.45 5.81 11.54 10.1a67.22 67.22 0 0 1 3.63 7.23c-.39.9-6.7 4.97-7.4 5.08Zm-10.74 521.21s-17.79 6.13-30 7.51c-11.84.12-30.11-3.72-30.11-3.72-.63-.21-.6-8.72 0-9 0 0 17.89-4.43 29.33-4.69 10.92-1.17 29.07 1.06 29.07 1.06.77.82 2.26 8.21 1.71 8.84ZM86.08 714.8a50.58 50.58 0 0 0-5.48-4.93c-3-2.8-6.94-4.3-9.45-5.73s-6.21-3.3-10.12-4.16a64.54 64.54 0 0 0-7.18-1.35c-.46-.15-2.16-8.48-1.7-8.82a38.94 38.94 0 0 1 8.68-3c5.2-1.32 12.84-.95 18.2 1.75 5.21 2.81 10.3 8.53 12.17 13.51a29.46 29.46 0 0 1 2.24 6.16c.41 1.52.66 2.47.66 2.47-.54.88-7.31 4.21-8.02 4.1Z" style="fill:#7e4457"/><path d="m368.35 540.81-4.84.93c-3 .47-7.3 1.56-12.28 1.56a76 76 0 0 1-32.24-4.5c-9.32-4-20.47-12-25.79-21.33a38.85 38.85 0 0 1-5.76-11.65l-1.69-4.85c-.3-1.06 7.73-3.92 8.37-3.28 0 0 1 1.32 2.54 3.55a32.54 32.54 0 0 0 6.75 7.94c5.54 6.15 14.93 10.39 22.14 13.49 7.42 2.86 17.47 6.43 26.27 7.49 4.32 1 8.24 1 11 1.3s4.54.4 4.54.4c1.07.85 1.93 8.36.99 8.95Zm296.07 37.62-30.12 2.33c-17.16 1.24-39.23 1.8-56.76-1.73-17.39-3.07-39.52-13.85-51.52-28.13a100 100 0 0 1-13.44-18.33c-2.65-5-4.24-7.94-4.24-7.94-.82-1.7 6.66-5.75 7.79-4.51 0 0 1.86 2.52 5 6.68a97.76 97.76 0 0 0 14.06 14.62c11.86 10.91 30.43 17.75 45.82 20.53 15.32 3.18 36.14 4.85 53.25 5.67 17.17 1 30.2 1.8 30.2 1.8 1.74.87 1.71 8.42-.04 9.01Zm2.46 41.19c-.07-.35-5.57 3.81-14.39 5.85-8.73 3-20.6 1.69-29.26-1.09-8.29-3.71-18-10.73-22.46-18.88-5.13-7.53-6.21-14.39-6.56-14.18-.24-.92 7.63-4.15 8.24-3.65.29-.21 3 4.9 8.44 9.4 4.82 5.25 12.87 8.35 18.57 11.05 6.06 1.8 14.15 4.87 21.29 4.29 7.09.34 12.61-1.43 12.69-1.09 1.03.61 4.08 7.5 3.44 8.3Zm272.88-18.63s-2.4.4-6.34 1a124.84 124.84 0 0 1-15.93 1.77c-12.82 1.28-29.07-.26-41.56-3-12.26-3.6-27.67-10-37.88-18.62a70.36 70.36 0 0 1-12.25-10.94c-2.8-3-4.5-4.74-4.5-4.74-.9-1 5.19-7 6.29-6.41l5 3.39a68.9 68.9 0 0 0 12.58 7.63c10.09 6 24.28 9.62 35.08 12.79 11.09 2.47 25.42 6 37.5 6.76a151.28 151.28 0 0 0 15.12 1.11l6.13.35c1.3.78 1.99 8.3.76 8.91Zm101.39 60.16-16.48 2.25c-9.4 1.25-21.54 2-31.19 1.11-9.61-1.11-22.27-4.34-31.18-10.51-2.24-1.51-4.31-2.86-6.07-4.19-1.55-1.69-2.9-3.2-4-4.5-2.14-2.52-3.45-4-3.45-4-.68-.9 6-6.22 6.8-5.88l3.57 2.33c1.06.72 2.33 1.57 3.73 2.55 1.68.6 3.51 1.29 5.48 2 7.57 3.15 18.44 4 26.94 4.9 8.78.93 20.07 2.09 29.3 3.07l16.58 1.91c.94.85.93 8.4-.03 8.96Zm184.42-45.11s-6.14 1.09-14.08 2.54-18.6 2.91-27.3 2.25c-8.51-.53-20.47-4.16-28-11.15a34.46 34.46 0 0 1-7.35-10l-1.67-4.5c-.28-1 7.63-4.19 8.2-3.71l2.18 2.73a27.07 27.07 0 0 0 6.48 5c5.72 3 14.26 3.95 21.57 4.32l25.3 2c8.24.61 14.65 1.59 14.65 1.59.87.8.82 8.35.02 8.93ZM360.78 822.99a187.85 187.85 0 0 1-25.05 5.15c-14.44 2.1-33 2.64-47.5-.07-14.43-2.36-32.78-10.31-44.12-21.46a68.64 68.64 0 0 1-11.56-15.85c-1.86-4.49-3-7.21-3-7.21-.56-1.53 7.37-4.62 8.22-3.61 0 0 1.34 2.08 3.56 5.49a63.59 63.59 0 0 0 11.36 11.18c10.37 7.47 25.94 12.29 38.72 14.33a255.57 255.57 0 0 0 43.45 4.08c13.84.13 24.37-.89 24.37-.87 1.55.65 2.92 8.07 1.55 8.84Zm111.91 82.51a110.57 110.57 0 0 1-12.91-.21c-7.39-.43-17-2.08-24.16-5.84-3.53-1.61-7.37-4.94-10.72-8.25-3.13-4-6-8-6.93-12.5-1.7-4.16-1.35-7.88-1.31-10.48s.14-4.08.14-4.08c.11-.87 8.61-.71 9-.14 0 0 .39 1.11 1.07 3s1.2 4.37 3.13 6.45c2.63 4.82 8.68 8 13.7 10.61 9.79 5.63 30.31 12.58 30.31 12.58.6.96-.46 8.41-1.32 8.86Zm109.13-48.88-12.8.44c-7.32.12-16.78-.07-24.46-2.36-3.72-.74-8.16-3.42-12.22-5.65-4-3.38-7.92-6.5-9.84-11a22.21 22.21 0 0 1-3.43-10.47c-.32-2.61-.53-4.22-.53-4.22 0-.91 8.41-1.94 8.87-1.44 0 0 .57 1 1.52 2.77s1.92 4.06 4.23 5.67c1.52 2.14 4.75 3.16 7.16 4.73 3.33.83 5.94 2.27 9.19 2.86 5.79 1.84 14.19 4.1 21.18 6l12.37 3.71c.63 1.04-.45 8.48-1.24 8.96Zm180.74 131.73a134.49 134.49 0 0 1-22.17.45c-12.65-.65-28.49-3.68-40.24-8.92-11.76-4.84-25.64-15.72-32.48-28a54.17 54.17 0 0 1-5.7-16.25l-.53-6.79c0-1.44 8.46-2 8.93-1 0 0 .61 2 1.57 5.28a49.4 49.4 0 0 0 6.65 11.46c6.78 8.2 18.48 15.2 28.62 19.34a200.48 200.48 0 0 0 35 11.8 174.87 174.87 0 0 0 20.41 3.6c1.21.96 1.24 8.5-.06 9.03Zm60.71-75.2a57.23 57.23 0 0 1-10.13 1.34 51.7 51.7 0 0 1-18.71-2.06 44.41 44.41 0 0 1-16.45-10.46 33.69 33.69 0 0 1-6.58-9.25c-.28-.64 6.88-5.24 7.39-5.11a37.79 37.79 0 0 0 6.88 3.7c4.23 1.76 9.88 3.26 14.32 4.61 4.33 1.55 10 4 14.77 5.51 4.75 1.7 8.58 2.72 8.58 2.72.49.9.53 8.45-.07 9Zm128.23 75.28a108.12 108.12 0 0 1-15.29 3.15c-8.85 1.34-20.65 1.3-29.87-1.88-9.18-2.65-20.33-11.91-23.75-21.72a40.61 40.61 0 0 1-2.87-12c-.11-2.94-.17-4.74-.17-4.74 0-1 8.5-1.82 8.92-1.12a36.29 36.29 0 0 0 5.69 11.59c4 5.72 11.2 9.49 17.82 11.51a108.34 108.34 0 0 0 24 5.22c8.06.9 14.45 1.06 14.45 1.06.94.78 1.88 8.27 1.07 8.93Zm142.5-33.91a93.23 93.23 0 0 1-12.12 1.59 68.22 68.22 0 0 1-23-1.67c-6.89-2.13-15.55-6.75-20.69-12.9a28 28 0 0 1-5.61-7.9c-1.09-2.12-1.76-3.39-1.76-3.39-.31-.77 7.06-5 7.64-4.75.3-.23 3 3.46 8.16 5.94 4.7 3 11.72 4.62 17.11 6.26 10.69 3.55 30.29 7.83 30.29 7.83.67.9.67 8.45-.02 8.99Zm-856.09 168.3s-3.6-1.28-8.26-3.29a61.14 61.14 0 0 1-14-8.75c-3.34-4-7.69-8.78-9.42-14.2-2.06-5.06-3.2-8.78-3.2-8.78-.12-.57 7.52-4.31 8-4.08 0 0 2.63 2.36 6 5.31 2.72 3.21 8 5.92 10.62 9.07 3.16 2.88 6.69 7.26 9.79 10.84l5.48 6.41c-.1 1-4.23 7.29-5.01 7.47Zm172.42 34.86s-2.28.75-6 2a72.3 72.3 0 0 1-15.77 2.21c-12.82.5-28.62-3.94-39.3-10.56-10.87-6.29-21.89-19-26.7-31.24a58 58 0 0 1-3.59-15.91c.07-4 .11-6.51.11-6.51.1-1.38 8.61-1.18 9-.19l1.06 5.13a54.15 54.15 0 0 0 5.25 11.68c5.48 8.67 15.26 17.21 24 22.19 8.46 5.33 20.51 10.77 31 12.3a71.64 71.64 0 0 0 13.19.75l5.34-.56c1.26.67 3.52 7.86 2.41 8.71Zm103.77 29.9a77.5 77.5 0 0 1-13-.58c-7.47-.69-17-3.48-23.82-8.07-6.54-4.63-13.73-13.73-14.79-22.34-1.28-4.08-.79-7.67-.74-10.17s.24-4 .24-4c.12-.85 8.63-.72 9-.13.33-.12.87 5 3.91 9.89 2.33 5.31 8 9.18 12.33 12.38a97.25 97.25 0 0 0 17.24 9.68c6 2.72 11 4.41 11 4.41.5 1.05-.55 8.51-1.37 8.93Zm933.21-127.77a86.29 86.29 0 0 1-17.86.1c-10.07-.84-22.5-3.61-31.77-8.26a52.94 52.94 0 0 1-14.28-10.29c-4.48-4.78-8.35-11.45-8.49-18.54 1.23-14.19 9.87-18.32 9.12-18.65.85-.83 7.13 4.94 6.9 5.77.34-.19-4.26 6.21-2.91 11.8.86 2.62 3.1 5.28 6.29 7.85a69.8 69.8 0 0 0 11.18 6.49 176.91 176.91 0 0 0 26.46 10.91 104.89 104.89 0 0 0 15.46 3.83c.89.93.97 8.46-.1 8.99Zm-189.78-45.83a87.31 87.31 0 0 1-12.19-4.47 62.82 62.82 0 0 1-20.58-13.81c-5-6-10.16-15.46-10.64-23.72-1.17-8 .4-13.87.08-13.83.15-.83 8.65-.73 9-.1.27-.08.92 5 3.62 10.5 2.07 5.77 7.3 11.06 10.87 15.47 4 4.17 9.21 10.14 14.58 14.31 5 4.43 9.31 7.62 9.31 7.61.21 1.13-3.14 7.88-4.05 8.04Zm144.86-367.88s-22.32 4.59-37.84 2.41c-7.59-1.19-17.36-4.39-24.25-9.08-7.1-4.13-11-9.3-11.11-9-.57-.63 4.82-7.2 5.55-7.07.18-.27 4.56 2.6 11.1 4.18 6.29 2.07 14.66 2.76 21.2 3.74 13.48 2.22 35.36 5.85 35.36 5.85.75.89.75 8.42-.01 8.97Zm-28.98 63.93s-1.65.65-4.41 1.71a70.36 70.36 0 0 1-11.3 3.54c-9.15 2.65-21.35 3.31-30.91 2-9.4-2-21.6-6.44-28.83-13.92-4.07-3-6.4-6.9-8.21-9.42s-2.78-4.07-2.78-4.07c-.53-.9 6.47-5.75 7.23-5.33l3.26 2.6c2 1.56 4.45 4 8.22 5.56 6.57 4.36 16.53 5.73 23.92 7.38 7.67 1 17.84 2.54 26.36 2.11a79.37 79.37 0 0 0 10.68-.51l4.35-.36c1.1.71 3.2 7.9 2.42 8.71Zm206.41 15.09a104.31 104.31 0 0 1-14.74 3.56c-8.5 1.51-19.33 2.25-28.14.82a47.27 47.27 0 0 1-14.49-4.82c-4.89-2.69-10.74-7.12-12.36-14.14a20 20 0 0 1 2.57-14c1.71-2.49 2.76-4 2.76-4 .65-.8 7.76 3.85 7.73 4.59.24-.38-2.65 6.39-.51 9.41 1.33 2.49 10.13 4.88 17.17 5.77 7 1.25 16.69 2.62 24.62 3.23s14 .71 14 .71c.92.76 2.18 8.19 1.39 8.87Zm2.52-56.58a67.71 67.71 0 0 1-10.3-.32c-5.87-.85-13.67-2.6-18.89-7.1-2.74-1.75-5.07-5.35-7.19-8.58-1.55-3.84-3-7.63-2.77-11.26-.38-7 2.41-11.28 2-11.36.27-.64 8.57 1.16 8.84 1.64.33-.11.1 3.84 2.08 7.34 1.44 3.71 4.82 6.36 7.9 8.61 2.61 2.57 7.58 5.61 11.83 8.1l8 4.06c.37.98-.84 8.42-1.5 8.87Zm179.13 71.45a64.94 64.94 0 0 1-10.72 5.59c-6.37 2.74-15.12 4.91-22.51 4.45-7.22-.22-17.42-4.38-22.73-11.07a28.86 28.86 0 0 1-4.81-8.89l-.87-3.76c-.13-.82 8-3.36 8.48-3a19.09 19.09 0 0 0 6.22 6.06c4 2.31 9.71 3.1 14.87 3.25a124.76 124.76 0 0 0 18.16.21c6-.4 10.62-1.21 10.62-1.21.9.6 3.74 7.6 3.29 8.37Zm-43.06-71.35s-1.27.19-3.32.46a44.73 44.73 0 0 1-8.4.55 56.71 56.71 0 0 1-21.26-4.1 67.88 67.88 0 0 1-17.36-12 86.13 86.13 0 0 1-7.89-8.06c-.41-.55 4.73-7.33 5.37-7.2 0 0 16.93 7.5 26.84 11.26 5 2.09 11 5.4 16.41 7.12a57.85 57.85 0 0 0 6.83 2.17l2.83.83c.59.92.63 8.44-.05 8.97Zm-996.89 534.08c.06-.31-6.57 1.24-15.19 0-8.82-.59-19-4.51-26.35-8.51a84 84 0 0 1-20.21-18.21 69.71 69.71 0 0 1-6.17-8.51c-1.39-2.21-2.24-3.53-2.24-3.53-.41-.8 6.27-6.07 7-5.67l3 2.42a78.82 78.82 0 0 0 7.52 5.78c6 4.6 14.07 9 20 12.72 6.1 3.35 13.67 8.43 20.48 10.72 6.67 2.94 12.26 3.48 12.25 3.79.72.97.78 8.5-.09 9Zm147.38 48.96a84.79 84.79 0 0 1-13.34 3.22 76.46 76.46 0 0 1-25.61.54c-7.76-1.52-17.42-5.31-24-10.22-6.87-4.44-10.7-9.47-10.83-9.22-.57-.65 4.82-7.23 5.56-7.07.14-.24 4.67 2.65 11.26 4.58 6.37 2.4 14.72 3.56 21.13 4.8 6.45 1.06 14.88 3 22 3.47 7.06.83 12.64 1 12.64 1 .82.81 1.89 8.27 1.19 8.9Zm506.45-319.89s-21.87.84-36-5.6a54.22 54.22 0 0 1-10.71-6.77c-3.3-3.39-6.76-6.35-8.59-10.47a45.43 45.43 0 0 1-2.6-5.26c-.35-1.76-.65-3.34-.91-4.65l-.63-4.09c0-.87 8.37-2.12 8.83-1.66l1.58 2.53c.42.75.94 1.66 1.51 2.65.77.92 1.88 1.74 2.82 2.7 3.71 3.91 10.52 6.7 15.88 9.16 10.53 5.16 30.29 12.59 30.28 12.62.59.99-.66 8.42-1.46 8.84Zm202.34 67.56a48.21 48.21 0 0 1-14.15 7.51c-8.45 3.1-19.6 4.86-28.44 4.06s-20-4.61-27.68-10.72a37 37 0 0 1-8.18-9.16l-2.09-4.51c-.39-1 7.35-4.61 7.93-4.23l2.29 2.44a30.15 30.15 0 0 0 7.11 4.36c6.24 2.72 15.1 4 22.19 4.47a134 134 0 0 0 23.86.5 48.31 48.31 0 0 0 12.67-2.5c1.06.45 5.05 6.84 4.49 7.78Zm165.45 52.64s-3 2.27-7.43 5.07c-4.25 3.28-10.82 4.42-15.83 5.52-5-.17-11.63-.87-16.24-3-4.7-1.91-8-3.59-8-3.59-.45-.28 1.64-8.51 2.14-8.73l7.79-.68c4.36-.06 9.29-1.62 13.13-1.42 3.64-.94 8.84.38 12.87-.61l7.6-.65c.78.67 4.19 7.4 3.97 8.09Zm-662.12-30.02-2.93 2a54.5 54.5 0 0 1-31 10c-7.61-.66-17.45-4.44-22.75-10.25-5.75-5.19-7.91-10.52-8.14-10.28-.39-.7 6.33-5.92 7-5.69.15-.25 3.62 3.08 8.74 5.22 4.88 2.76 11.43 3.09 16.37 3.6 5 .28 12.07.53 18.07-.57a60 60 0 0 0 7.59-1.42l3.12-.66c.92.53 4.33 7.3 3.93 8.05Zm-8.98 203.37-3.56 1c-2.26.49-5.39 1.64-9.17 1.89-7.41 1.12-17.39.84-25-2.42-3.75-1.35-7.89-4.48-11.34-7.77-3.31-3.87-6.08-8-7-12.36-1.69-4.12-1.22-7.78-1.22-10.31s.16-4 .16-4c.1-.85 8.62-.71 9-.15l1.06 2.9c.66 1.73 1.14 4.3 3.06 6.25 2.52 4.76 8.33 7.31 13 9.37a77.18 77.18 0 0 0 18.36 5.33c3.13.8 6 .7 8.09 1s3.35.37 3.35.37c.79.78 1.86 8.29 1.21 8.9Zm209.11 63.76-8.37.57c-4.58.09-10.58 1-15 .54-9.06-.53-23.71-4.69-23.71-4.69-.5-.2-.49-8.71 0-9 0 0 14.8-4.12 24.68-3.71a62.39 62.39 0 0 1 16.09 3.88c4.94 2 8.45 3.66 8.45 3.66.33.97-1.54 8.27-2.14 8.75Zm266.33 44.79c-.28-.12-7.32 1.7-11.67 1.44-4.42-.5-12.3-4.67-12.29-4.67-.28-.2-.28-8.72 0-9 0 0 8.2-4.15 14.08-3.66 6.09.46 14.16 7.8 13.84 7.81-.09.93-3.51 7.64-3.96 8.08Z" style="fill:#a04d5a"/><path d="M465.61 351.79a95.14 95.14 0 0 1-2.83-17.3c-.9-10 .09-22.94 4-32.82 3.31-9.72 13.66-21.9 25.23-25a38.34 38.34 0 0 1 13.89-1.43l5.29.77c1.11.24.1 8.69-.73 9l-4.22.55a30 30 0 0 0-9.21 3.31c-6.55 3.61-11.39 11.68-14 19.23a119 119 0 0 0-7 26.78 128.07 128.07 0 0 0-1.38 15.9c-.89.98-8.38 1.96-9.04 1.01Zm267.13 12.26-2.41-5.4a52 52 0 0 1-3.94-14.7c-1.07-6.2 0-13.88 2.78-21a42.57 42.57 0 0 1 13.71-16.53c10.7-7.33 26-10.27 37.64-10a94.73 94.73 0 0 1 20.2 2.12c1.19.29.24 8.74-.84 9a112.18 112.18 0 0 0-18.23 2c-10.21 1.7-21.84 6.31-28.81 11.21a36.87 36.87 0 0 0-9.32 9.4c-2.1 4-3.95 8.64-4 13.4a46.36 46.36 0 0 0 .68 12.27c.58 3.18.94 5.11.94 5.11-.45 1.29-7.45 4.05-8.4 3.12Zm169.47-77.5s.17-1.91.46-5.09a46.52 46.52 0 0 1 3.18-12.79c1.8-5.19 5.67-10.62 10.5-15.1a45.28 45.28 0 0 1 16-8.4c10.27-2.94 22.47-2.41 31.68-2.35 9.25.23 15.92-.38 15.92-.35.94 0 3 8.24 2.1 8.74a109.5 109.5 0 0 1-16.7 4.72c-9.48 2-20.86 3.73-28.21 6a49.06 49.06 0 0 0-11.07 4.4c-3.18 2.28-6.42 4.92-8.53 8.37a41.34 41.34 0 0 0-4.86 9.27c-1 2.59-1.6 4.16-1.6 4.16-1.1.72-8.55-.47-8.87-1.58Zm146.76-97.9c.3.08.28-6.63 3.53-15.29 2.75-9.08 12.27-18.38 21.06-22.25a59.1 59.1 0 0 1 28.9-2.3 75.34 75.34 0 0 1 10.46 2c2.55.66 4.11 1 4.11 1 .83.29-.28 8.72-1.09 8.93 0 0-1.51.1-4 .29s-6 .21-9.7.85c-7.8.5-16.2 3.25-22.06 5.27-5.41 2.65-12.29 6.25-16.09 12.34-4.08 5.59-6.16 11.31-6.39 11.13-1.08.6-8.45-.99-8.73-1.97Zm-.04 243.93s-1.23-1.83-3.3-4.85a57.81 57.81 0 0 1-5.55-13.59c-3.12-11.44-1.85-27 3.6-37.69 5.13-10.73 17.51-22 29.74-24.53a45.77 45.77 0 0 1 14.86-1.4l5.79.74c1.2.24.27 8.69-.67 9l-4.77.61a38 38 0 0 0-10.76 3.47c-8.21 3.58-14.9 12.35-18.58 19.87-3.87 7.5-6.8 18.62-6.23 27.86a55.52 55.52 0 0 0 2 11.47l1.63 4.45c-.37 1.28-6.7 5.36-7.76 4.59Zm221.95-33.75s-1.47-2.06-3.91-5.51a44.88 44.88 0 0 1-5.82-16.37c-2.1-14.49 5.67-31.86 14.8-41 8.87-9.73 23.15-18.2 35.51-22a72.25 72.25 0 0 1 22.37-3.87c1.39 0 2.07 8.48 1 8.93a72.91 72.91 0 0 0-18.35 7.07c-10 5.16-20.8 14-27.72 21.67-7.38 7.39-14.06 18.59-14.49 28.52a36.41 36.41 0 0 0 1.94 12.56c1.31 3.13 2.12 5 2.12 5-.18 1.39-6.28 5.88-7.45 5Zm180.45 59.89a51.29 51.29 0 0 1-7.92-18.88c-2.6-11.26-2.48-25.93 1.2-37.09 3-10.83 13.82-25.58 27.8-28.13 13.61-2.28 21.47 3.55 21.49 3 1.15.53-2 8.47-2.91 8.52.15.27-7.62-2-14.86 1.12-7.16 2.91-12.51 12.34-15 20.92a94 94 0 0 0-4.73 29.91 47.38 47.38 0 0 0 2.78 16.34c-.36 1.27-6.82 5.14-7.85 4.29Zm155.95-23.99s-2.33-.93-6.15-2.42a55.55 55.55 0 0 1-13.4-9.58c-9.73-9.14-16.66-24.9-17.5-38-1.35-12.87 4.45-31.1 16.07-39.76a40.33 40.33 0 0 1 15.32-7.39l6.51-1.06c1.39-.16 2.58 8.27 1.67 8.82l-4.87 2a32 32 0 0 0-9.69 7.31c-6.41 7-8.6 19.37-7.63 29 .57 9.56 3.93 22.27 10.07 30.56a48.75 48.75 0 0 0 8.78 9.35l4.33 2.94c.58 1.23-2.1 8.3-3.51 8.23Z" style="fill:#fffbe9"/><path d="M872.03 259.95s-2.49-2.09-6.61-5.59c-4.31-3.2-9.22-9-16.88-12.82-3.57-2.14-7.36-4.42-11.25-6.78-4-2.14-8.55-3.36-12.76-5.14-8.32-4.13-17.63-4.6-25.28-6.72-15.66-1.91-36.6-2.65-52.87 2.46-8.37 1.46-15.23 4.45-20.24 6.49s-8.08 3.12-8.08 3.12c-1.69.59-5.92-6.8-4.4-7.86 0 0 3-1.7 8-4.53s12-7.07 20.85-9.8c17.07-7.6 41.1-9.4 59.4-7.1 8.94 2.33 19.56 3.76 28.81 9.14 4.66 2.41 9.63 4.34 13.85 7.18l11.72 8.92c7.81 5.19 12.38 12.16 16.42 16.24 3.81 4.29 6.07 6.89 6.07 6.89.7 1.93-5.09 6.75-6.75 5.9Z" class="cls-10"/><path d="M871.69 258.07s-4.81-11.55-10.35-27.41-11-36.56-11.56-53.8c-.65-16.95 3.92-40.24 15.3-54.75A79.8 79.8 0 0 1 880.53 106c4.51-3.15 7.21-5.06 7.21-5.06 1.56-1 6.37 6 5.34 7.23l-5.66 5.49a73.72 73.72 0 0 0-11.22 15.44c-7.8 13.09-9.55 32.21-9 47.18s3.43 34.86 6.82 50.88c3.56 16 6.26 28.26 6.26 28.26-.33 1.88-7.53 4.08-8.59 2.65Z" class="cls-10"/><path d="M958.88 209.86s-1.81.53-4.79 1.36-7.17 1.85-11.69 3.52c-9.38 2.62-19.61 8-27.27 12-7.13 4.61-16.63 10.41-21.72 18.07-5.69 7-8.37 14-8.68 13.75-.57.84-8.73-1.57-8.59-2.68 0 0 .53-2 1.39-5.19 1.08-3.21 1.74-8.11 4.73-12.82 4.28-10.52 15-20.45 24.17-26.25 9.61-5.09 22.7-9.06 33.18-9.75a100.87 100.87 0 0 1 13-.87c3.25 0 5.21-.08 5.21-.08 1.19.76 1.96 8.3 1.06 8.94Z" class="cls-10"/><path d="m578.55 753.69-16.92-6.43c-10.7-3.59-25.78-8.21-43.32-12.19-35-8.1-79.86-12.68-115.11-16.95s-80.63-11.11-116.26-21.4a407.94 407.94 0 0 1-43.76-15.5c-10.51-5-16.85-8-16.85-8-3.48-1.72.41-9.3 3.83-8.1 0 0 6.32 2.46 16.82 6.59a441.71 441.71 0 0 0 43.22 12.37c35.07 8 79.84 12.64 115.11 16.85s80.66 11.1 116.26 21.48a422.94 422.94 0 0 1 43.78 15.36l16.92 7.83c3.18 2.21-.12 8.97-3.72 8.09Zm541.14 71.9-24-5c-15.24-2.28-36.75-4.73-61.56-8.93-24.83-5.92-51.69-9.69-78.6-14.61-27.14-4-54.32-7.23-78.22-10.45-43.64-5.08-98.27-14.91-111.23-17.86l.55.06c-23.46-3.16-42-9.43-58.24-13.54-16.16-4.45-29.53-7.79-40.27-9.66a92.7 92.7 0 0 0-14-2c-4-.24-7.41-1-10-.67-5.16.35-7.73.54-7.73.54-4.72.21-6.84-8-1.42-8.88l8.89-1.06c3-.51 6.51.12 10.88.2a99.77 99.77 0 0 1 15 1.47c11.34 1.52 25.22 4.45 41.58 8.38 16.33 3.62 35.45 9.28 56.63 11.57l.55.06c13.21 1.08 67.26 9 111 14.08 23.92 3.26 51.27 7.09 78.67 11.93 27.3 5.77 55.36 10.92 78.5 17.51 23.81 5.09 45.46 8.61 60.88 11.71l24.54 6.5c4.9 2.08 2.54 9.28-2.4 8.65Zm714.45 68.63s-50.3-.6-116.79-1.35c-33.21-1.3-70.59-3.69-107.74-5.73-18.54-1.17-37.12-2-55-3.49l-51.12-5.23c-32.16-3.55-68.78-7.59-105.61-11.67-36.77-3.35-74.26-7.74-107.17-14.54l-23.85-5.08c-7.73-2.14-15-4.5-21.63-6.88-13.3-4.63-24.88-8.84-34.66-10.8-4.89-1.28-9.29-1.35-13.15-2-3.83-.19-7.09.13-9.77.13-5.29.37-8 1.63-8 1.43-6.06 1.29-9.51-6.53-2.35-8.67a56.29 56.29 0 0 1 9.39-2.12c3.06-.14 6.87-.62 11.24-.57 4.25.52 9.37.49 14.64 1.66 10.78 1.79 23 5.73 36.34 9.87 6.7 2.15 13.6 4.13 20.85 5.88l23.44 4.18c32.38 5.64 69.13 8.93 106.24 11.5 37 3 73.55 7 105.76 10.29l51.06 5.64c17.76 1.75 36.09 2.87 54.48 4.44 36.82 2.94 73.88 5.92 106.9 8.57 66.35 3.12 116.56 5.5 116.56 5.5 6.81 1.12 6.73 8.66-.06 9.04ZM545.25 1070.38l-65.56-12.22c-37.38-6.64-84.12-15.54-120-25.6l-28.28-8.77c-9.84-3.17-20-6.49-29.64-8.7-19.69-4.93-40.91-7.1-60-10.86a135.3 135.3 0 0 1-46.15-17.9c-5.32-3.24-8.83-6.91-11.57-8.94l-4.08-3.36c-3.17-2.71 2.81-8.81 5.88-6.81l4 2.84c2.66 1.68 6.08 4.86 11.12 7.48a127.17 127.17 0 0 0 43.09 13.74c18.33 2.6 39.79 3.68 61.45 8.21 11.14 2.18 21.14 5.15 30.85 8s19.17 5.65 28 8.26c35.33 10 81.12 20.82 118.15 29.53l64.9 16.35c3.55 1.72 1.73 9.03-2.16 8.75Zm607.21 96.13-10.68-4.78c-7.08-3-17.57-7.56-31.54-12.32s-31.46-10.38-52-12c-10.46-1.14-20.33.2-32.3 3.52-11.76 3.17-26.4 6.46-41.51 4.29l1 .07c-2.25-.13-5.38-.28-9-.8-3.26-1-7.52-1.82-11.31-3.61-8.09-3.17-16.58-8.19-25.63-12.09-16.76-8.15-41.56-6.89-63.22-4.93-27.54 2.5-60.79 8.44-94.82 3.36-33.49-5.39-64.14-17.56-91.77-26.25s-52-15.92-69.72-17.43a92.29 92.29 0 0 0-20.79-1.35h-7.54c-5.82 0-6.92-8.47-.8-9l8.06-.42a98.86 98.86 0 0 1 22.13.46c18.94.83 44.21 7.34 72.48 15.07s59.2 18.81 90.22 23c30.8 3.87 62.12-2.08 90.92-4.83a251.37 251.37 0 0 1 35.94-1.07c6.25.78 12.2 1 18.41 2.3a83.53 83.53 0 0 1 17.29 6c10.25 4.82 18.3 9.94 24.92 12.8 3.35 1.78 6.12 2.31 8.57 3.32l5.67 1 1 .08c12.5 2 24.2-.23 36.29-3.11 11.89-3.14 25.46-4.61 36.54-2.93 22.65 2.46 40.38 9.06 54.63 14.34s24.72 10.49 31.8 13.84c7 3.53 10.68 5.34 10.68 5.34 5.14 3.51 1.61 10.18-3.92 8.13Zm714.58 72.8s-3.07-.49-8.72-1.43c-5.55-1.2-13.85-2.05-24.26-2.66-10.34-1.06-22.95-.79-37.15-.94-14.18.6-30.21-.42-47.31-1.58-68.56-4.1-149.9-28.11-213.46-42-31.78-6.43-68.18-14.47-104.92-16-36.93-1.55-74.81.12-108.64 0-33.86.26-63.85-2-85.08-5.27-10.69-.93-19-4-24.79-5l-8.94-2.12c-7-1.73-4.25-9.84 2.31-8.7l8.69 1.72c5.7.77 13.63 3.43 24.13 3.95 20.72 2.38 50 3.63 83.48 2.32 33.55-.93 71.27-3.68 109.47-2.89 38.54.8 75.65 8.48 108.07 15 64.53 14.18 144.44 39.89 210.81 45.88 16.49 1.61 32 3.16 46.38 3 14.29.64 27.14.85 37.81 2.33 10.72 1 19.25 2.21 25.07 3.68l9 1.88c6.86 2.28 4.7 9.51-1.95 8.83Z" style="fill:#efc792"/></svg>