<svg xmlns="http://www.w3.org/2000/svg" id="Modo_de_aislamiento" data-name="Modo de aislamiento" viewBox="0 0 2063.37 1843.68"><defs><style>.cls-1{fill:#e4ac4b}.cls-2{opacity:.3}.cls-3{fill:#5d1e4e}.cls-5{opacity:.65}.cls-6{fill:#fff}.cls-7{fill:#cb1e27}.cls-8{fill:#a01c27}.cls-9{fill:#e8c352}.cls-10{fill:#7dc562}.cls-11{fill:#592047}.cls-12{fill:#582147}</style></defs><path d="M66.9 1594.92s-41.39 131.56 266.73-57 1077.19-332.61 1441-286.61 107-818.8-163-957.63S497.05 754.37 66.9 1594.92Z" class="cls-1"/><g class="cls-2"><path d="M91.36 1565.81s-65.85 160.67 242.27-27.85 1077.19-332.61 1441-286.61 107-818.8-163-957.63S521.51 725.26 91.36 1565.81Z" class="cls-3"/></g><path d="M120.02 1643.47c-16.19 0-29-3.86-38.49-11.54-29-23.49-13.33-69.29-12.65-71.23a13.55 13.55 0 0 1 .75-1.75c197.71-386.34 452.8-669.15 632-838.36 227.06-214.44 466.66-372.63 657.36-434 110.06-35.43 197.24-37.25 259.11-5.44 98.06 50.42 200.37 194.59 273.69 385.65 71.83 187.22 95.43 371.43 61.57 480.75-24.41 78.8-76.51 119.75-151.53 119.76a231.24 231.24 0 0 1-28.93-1.89c-374.34-47.34-1137.1 104.29-1431.85 284.63-102.17 62.48-175.18 93.42-221.03 93.42Zm-24.7-72.58c-2.62 8.25-6.76 30.36 4.06 39.06 9.08 7.29 52.26 22.77 226.87-84.07 146-89.35 402.74-174.3 704.29-233.07 292-56.89 570.78-77.65 745.88-55.5 76.27 9.61 126.71-23.38 149.87-98.16 32.07-103.54 8.71-280.66-61-462.23-69.83-182-169.53-324-260.19-370.61-54.17-27.85-136.3-25.36-237.49 7.21-186.83 60.14-422.5 216-646.6 427.65-177.38 167.52-429.88 447.52-625.69 829.72Z" class="cls-3"/><path d="M2150.48 689.67c-42.76-9.83 4.26-25.89-52.43-82.41s-119-10.06-119-10.06c10.12-20.72 12.42-40 1.55-55.18-48.78-68.34-176.85-25.57-223.72-80.4s-158.78-4.55-158.78-4.55S929.8 856 738.49 1315.44 561.78 1916 644.93 1884.15s144.44-103.5 205.33-47-15.14 162.36 58.49 214.55c41.23 29.22 136.7-23.24 90.83-101.53s-106.58-223.41-3.73-301.26 339.15-119.27 325.22-9.91c-34.58 271 253.69 156 164.16 41.55-76-97.24-6.09-268 163.45-174 142.3 78.89 124.21-28.53 264.58-74.65 104.71-34.41 297.39-35.53 297.39-35.53 135.22-79.42 13-118.62 13-118.62s113.3-87.24 84.88-147.51-14.65-155.24-12.14-251.35-103.15-179.39-145.91-189.22Z" style="fill:#f1cc30" transform="translate(-519.79 -230.31)"/><g class="cls-2"><path d="M1630.69 459.36c-42.76-9.83 4.26-25.89-52.43-82.41s-119-10.06-119-10.06c10.12-20.72 12.42-40 1.55-55.18-48.78-68.34-176.85-25.57-223.72-80.4s-158.78-4.55-158.78-4.55-15.55 9.28-42.54 26.61c209.08 54.94 640.62 231.1 561.18 858.18 0 0-834.6 59.89-1064 202.49-165 102.56-330.87 295.33-459.53 320.07 9.21 23.57 27.58 29 51.76 19.73 83.15-31.81 144.44-103.5 205.33-47S315.37 1769.2 389 1821.39c41.23 29.22 136.7-23.24 90.83-101.53s-106.62-223.41-3.77-301.26 339.15-119.27 325.22-9.91c-34.58 271 253.69 156 164.16 41.55-76-97.24-6.09-268 163.45-174 142.3 78.89 124.21-28.53 264.58-74.65 104.71-34.41 297.39-35.53 297.39-35.53 135.22-79.42 13-118.62 13-118.62s113.3-87.24 84.88-147.51-14.65-155.24-12.14-251.35-103.15-179.39-145.91-189.22Z" class="cls-3"/></g><g class="cls-5"><path d="M1667.21 480.86a77.6 77.6 0 0 1 12.49 4.22 199.82 199.82 0 0 0-32.94-19.9c.97 7.35 4.3 11.96 20.45 15.68Zm74.29 588.48-.72-.71-.41.32s.41.13 1.13.39Zm-245.7-680.96s36.54-27.19 79.11-14.58c-24.69-22.8-50.16-26.8-70.91-24.12 1.79 11.74-1.45 24.89-8.2 38.7Zm-44.67-87.88c-42.29-40.73-121.8-28.81-175.72-45.81 36.59 39.35 117.65 25.39 175.72 45.81Zm-372.81-73.74S780.88 404.3 526.06 658.92a106.09 106.09 0 0 0-14.24 12.77 107.35 107.35 0 0 0-7.73 9.46c-118.49 121.74-225.4 259.87-285.39 404-179.67 431.49-177.72 582.13-108 572.55-24.06-55.52 7.16-221.25 144.49-551 51.65-124 138.08-243.68 236.72-352.24a39.3 39.3 0 0 0 7.72 10c21.91 20.27 62.88 11.63 91.5-19.31s34-72.44 12.14-92.71a39.27 39.27 0 0 0-7-5c246.6-236.8 501.25-418.22 501.25-418.22s86.46-12 138.82 1.42c-47.2-53.64-158.02-3.88-158.02-3.88Z" class="cls-6"/></g><path d="M417.4 1843.69c-13.56 0-26.38-3.5-36.62-10.76-44.85-31.78-42.1-80.44-39.67-123.36 2-35.95 3.94-69.91-20.27-92.36-34-31.54-66.65-15.58-121.42 15.35-21.7 12.24-44.14 24.91-69.22 34.51-30.11 11.52-48.08 1.93-57.86-8.13-62.42-64.27 38-350.47 133.29-579.24 100-240 330.13-462.57 505.63-607 189.61-156 358.12-257.1 359.8-258.11.47-.28 1-.53 1.45-.76 5-2.22 122.2-53.9 175.35 8.27 18.38 21.51 55.15 25.36 94.08 29.43 47.28 4.95 100.87 10.57 130.4 51.94 7.59 10.62 10.79 22.83 9.63 36.5 29.66-9.4 70.2-9 106.29 26.94 33.95 33.86 35 56.65 35.69 70.26.08 1.75.19 4 .39 5.21.88.54 3.4 1.77 9.52 3.18 49.25 11.32 159.59 99.89 156.89 203.38-.55 21.24-1.66 42.48-2.72 63-3.69 71-7.17 138.09 13.5 181.94 25.68 54.49-37.73 120.29-71.17 149.89 16.17 9 35.47 24.48 38 47.67 3.18 28.74-19.84 57.14-70.37 86.82a14.11 14.11 0 0 1-7.08 1.94c-1.91 0-191.69 1.52-293.06 34.82-50.49 16.6-78.82 41.05-103.82 62.63-46.51 40.14-79.7 62.16-172 11-63.27-35.08-117.7-34-149.32 3.06-33.14 38.82-31.44 104.62 3.89 149.8 25.88 33.1 27 71.78 3.1 103.46-29.07 38.47-85.52 54.86-128.52 37.35-30.65-12.49-79.7-51.89-63.93-175.43 2.29-17.89-3.44-30.16-18-38.6-53.75-31.14-205.38 1.68-284.62 61.62-99 74.9-27.81 222.72 7.4 282.8 22.6 38.56 18 78.2-12.36 106-17.8 16.3-40.95 24.98-62.27 24.98Zm-135.76-271.94c19.63 0 39.18 6.82 58.46 24.69 34 31.52 31.47 75.72 29.27 114.72-2.3 40.74-4.29 75.93 27.78 98.66 15.37 10.89 44.39 5.42 63.35-12 11.81-10.82 28.42-34.43 7.07-70.85-39-66.61-117.17-231.09-.05-319.69 81.36-61.54 246.4-103.8 315.89-63.54 24.63 14.26 35.66 37.33 31.92 66.68-9.91 77.65 6.61 129.36 46.52 145.63 31.17 12.7 73.9.06 95.26-28.2 9.37-12.41 21.48-37.87-2.82-69-43.32-55.4-44.69-136.93-3.12-185.62 40.56-47.51 109.55-51 184.58-9.44 79.75 44.22 99.83 26.89 139.83-7.64 25.66-22.15 57.6-49.72 113.47-68.08 98.62-32.4 269.24-35.85 297.86-36.2 48.57-29.19 54.32-48.39 53.35-57.33-1.88-17.3-30.79-30.45-40.77-33.7a14.16 14.16 0 0 1-4.29-24.68c27-20.86 99.91-89.56 80.72-130.26-23.71-50.29-20-120.82-16.17-195.48 1.06-20.36 2.15-41.41 2.7-62.29 2.25-86.11-94.94-165.86-134.93-175-25.67-5.9-31-16.72-31.85-34.63-.51-10.74-1.21-25.45-27.4-51.56-47.1-46.95-98.42-10.28-100.58-8.7a14.17 14.17 0 0 1-21.14-17.55c12.93-26.49 5.27-37.22 2.75-40.75-22.12-31-65-35.48-110.31-40.23-42.74-4.48-86.93-9.1-112.65-39.19-32.51-38-112.38-14-141.47-1.18-12 7.26-174.16 105.88-356 255.51-172.9 142.31-399.49 361.18-497.16 595.73-70 168.17-116.35 302.93-137.71 400.55-24.1 110.13-9 140.24-1.4 148.08 2.09 2.14 8.44 8.67 27.43 1.42 23.12-8.85 44.62-21 65.42-32.73 31.76-17.89 64.06-36.15 96.19-36.15Z" class="cls-3"/><path d="M1179.15 1156.59c80.85-14.58 162-27.7 243.63-38.25 40.81-5.26 81.73-9.86 122.81-13.45s82.32-6.17 123.78-7a12.39 12.39 0 1 1 .47 24.77h-.63c-40.67-1.27-81.55-.76-122.44.73s-81.8 4-122.68 7.23c-81.81 6.46-163.46 15.47-244.94 25.97Z" class="cls-3"/><g class="cls-2"><path d="m1440.21 293.28 1.14-.8-.57-.41c-.21.4-.38.81-.57 1.21Zm317.32 281.7c-2.51 96.13-16.29 191.09 12.12 251.36a47 47 0 0 1 3.37 9.94c-5.36-54.47 1.83-120.79 3.58-187.7.69-26.54-6.89-52.09-19.09-75.4-.01.6.03 1.2.02 1.8Zm16.68 271.59c.8 57.79-89.44 127.28-89.44 127.28s47.26 15.17 50.49 45.73c31.16-30.67 71.79-80.76 53.46-119.64-7.37-15.64-11.89-33.64-14.51-53.37Z" class="cls-3"/></g><ellipse cx="1688.77" cy="741.92" class="cls-7" rx="205.96" ry="164.37" transform="rotate(-32.89 1038.622 1507.245)"/><g class="cls-5"><path d="M1199.01 673.78c-101 26.18-189.66-24.54-198-113.28s66.8-181.9 167.81-208.08c74.29-19.25 141.85 3.13 175.73 51.59-33.85-57-108.78-84.25-191.58-62.79-107.12 27.76-186.8 126.55-178 220.65s102.84 147.89 210 120.13a251.56 251.56 0 0 0 77.94-35.47 236.2 236.2 0 0 1-63.9 27.25Z" class="cls-6"/></g><path d="m1185.08 379.89 23.39 249c65.4-28.61 110.75-93 105-154.75s-60.85-100.09-128.39-94.25Zm-58.55 15.74c-63.8 29.23-107.7 92.62-102 153.41s59.15 98.95 125.28 94.52Z" class="cls-8"/><path d="M1126.53 395.63c-63.8 29.23-107.7 92.62-102 153.41s59.15 98.95 125.28 94.52Z" class="cls-8"/><path d="M1135.5 478.69c-20.9 9.58-35.29 30.35-33.42 50.27s19.38 32.42 41.05 31Zm56.31-14.6c21.67-1.45 39.17 11.05 41.05 31s-12.52 40.69-33.42 50.26Z" class="cls-7"/><path d="M1129.44 701.29c-39 0-75.38-10.56-104.52-31-35.71-25.09-57.71-63.19-61.87-107.3-9.35-99.57 74.5-204.27 186.91-233.4 60.24-15.62 119.68-7.1 163.08 23.35 35.75 25.08 57.72 63.18 61.87 107.29 9.35 99.57-74.5 204.28-186.91 233.4a233.71 233.71 0 0 1-58.56 7.66Zm79.14-355.33a210 210 0 0 0-52.59 6.89c-101.49 26.3-177.3 119.56-169 207.89 3.47 37 21.85 68.9 51.74 89.87 37.62 26.4 89.83 33.59 143.25 19.76 101.49-26.3 177.31-119.56 169-207.89-3.47-37-21.85-68.9-51.74-89.87-25.03-17.59-56.61-26.65-90.66-26.65Z" class="cls-3"/><path d="M1104.29 589.2a74.9 74.9 0 0 1 3.14 10.53 32.47 32.47 0 0 1 1.17 10.09 8.67 8.67 0 1 1-17.28-1.32 8.88 8.88 0 0 1 .5-2.32 32 32 0 0 1 5.25-8.7 73.86 73.86 0 0 1 7.22-8.28Zm-27.5-25.1a75.32 75.32 0 0 1-2.43 10.76 32.26 32.26 0 0 1-3.93 9.42 8.66 8.66 0 1 1-14.43-9.58 8.88 8.88 0 0 1 1.56-1.77 32.16 32.16 0 0 1 8.86-5.08 73.93 73.93 0 0 1 10.37-3.75Zm-7.34-40.11a66.29 66.29 0 0 1-7 7.63 28.21 28.21 0 0 1-7.57 5.71 8.68 8.68 0 0 1-7.4-15.7 8.81 8.81 0 0 1 2.46-.74 28.17 28.17 0 0 1 9.45.59 67.16 67.16 0 0 1 10.06 2.51Zm15.42-41.04a60.77 60.77 0 0 1-9.59 1.89 24.82 24.82 0 0 1-8.85 0 8.705 8.705 0 0 1 3.76-17 9 9 0 0 1 2.58 1 24.79 24.79 0 0 1 6.42 6.08 61.83 61.83 0 0 1 5.68 8.03Zm32.74-27.58a64.13 64.13 0 0 1-8.74-5 26.54 26.54 0 0 1-7-6 8.68 8.68 0 1 1 15.11-8.15 26.7 26.7 0 0 1 1.19 9.12 63.87 63.87 0 0 1-.56 10.03Zm126.93 97.13a66.62 66.62 0 0 1 8.45 5.88 27.76 27.76 0 0 1 6.61 6.7 8.68 8.68 0 1 1-14.59 9.4 8.88 8.88 0 0 1-1.06-2.36 27.81 27.81 0 0 1-.62-9.39 64.92 64.92 0 0 1 1.21-10.23Zm21.05-38.1a61 61 0 0 1 9.72-.92 24.59 24.59 0 0 1 8.8.87 8.69 8.69 0 1 1-7.9 15.23 24.72 24.72 0 0 1-5.78-6.69 60.21 60.21 0 0 1-4.84-8.49Zm-.5-42.43a65 65 0 0 1 7.28-7 26.42 26.42 0 0 1 7.7-5 8.69 8.69 0 0 1 6.23 16.22 9 9 0 0 1-2.6.56 26.74 26.74 0 0 1-9.09-1.39 64 64 0 0 1-9.52-3.39Zm-21.88-31.86a71.81 71.81 0 0 1 2.76-10.47 30.63 30.63 0 0 1 4.2-9.05 8.66 8.66 0 1 1 14 10.2 9 9 0 0 1-1.68 1.74 31.25 31.25 0 0 1-8.92 4.49 74 74 0 0 1-10.36 3.09Zm-35.54-10.13a74.64 74.64 0 0 1-2.7-10.68 32.19 32.19 0 0 1-.76-10.18 8.663 8.663 0 1 1 17.21 2 9.1 9.1 0 0 1-.59 2.28 32.15 32.15 0 0 1-5.61 8.53 74.08 74.08 0 0 1-7.55 8.05Z" class="cls-9"/><path d="M1208.47 640.94a12 12 0 0 1-12-10.89l-23.39-249a12 12 0 0 1 10.92-13.1c75.59-6.56 135 37.69 141.35 105.14 6.16 65.59-41 135.77-112.11 166.87a11.87 11.87 0 0 1-4.77.98Zm-10.26-249.61 20.58 219.08c53.33-29.62 87.44-84.21 82.66-135.1-4.7-50.08-47.22-84-103.06-84Zm-58.73 264.59c-68.43 0-121-43.11-126.9-105.76-6.13-65.21 38.67-133.26 109-165.46a12 12 0 0 1 17 9.8l23.28 247.93a12 12 0 0 1-11.16 13.12c-3.83.25-7.55.37-11.22.37Zm-23.27-241.43c-51.52 30-84.39 83.84-79.74 133.42s45.14 83 100.15 84Z" class="cls-8"/><ellipse cx="1259.38" cy="1185.91" class="cls-7" rx="192.66" ry="153.76" transform="rotate(-32.89 609.254 1951.197)"/><g class="cls-5"><path d="M767.68 1107.3c-94.49 24.48-177.41-23-185.21-106s62.49-170.15 157-194.64c69.49-18 132.68 2.92 164.38 48.26-31.66-53.28-101.75-78.81-179.21-58.74-100.2 26-174.73 118.38-166.47 206.4s96.2 138.34 196.41 112.38a235.33 235.33 0 0 0 72.9-33.19 220.73 220.73 0 0 1-59.8 25.53Z" class="cls-6"/></g><path d="m754.65 832.39 21.88 233c61.17-26.76 103.59-87 98.17-144.75s-56.87-93.71-120.05-88.25Zm-54.77 14.72c-59.68 27.34-100.75 86.64-95.4 143.5s55.32 92.56 117.18 88.42Z" class="cls-8"/><path d="M699.88 847.11c-59.68 27.34-100.75 86.64-95.4 143.5s55.32 92.56 117.18 88.42Z" class="cls-8"/><path d="M708.27 924.8c-19.55 9-33 28.38-31.26 47s18.13 30.33 38.4 29Zm52.67-13.65c20.27-1.36 36.65 10.34 38.4 29s-11.71 38.06-31.26 47Z" class="cls-7"/><path d="M702.6 1134.17c-36.72 0-71-9.94-98.43-29.21-33.72-23.65-54.44-59.59-58.35-101.19-8.8-93.67 70-192.16 175.69-219.55 56.68-14.68 112.63-6.66 153.5 22 33.72 23.65 54.44 59.59 58.35 101.19 8.79 93.68-70 192.16-175.7 219.55a220.23 220.23 0 0 1-55.06 7.21Zm74-332.38a195.54 195.54 0 0 0-48.9 6.41c-94.42 24.47-165 111.16-157.25 193.25 3.22 34.26 20.24 63.81 47.92 83.24 34.91 24.49 83.41 31.16 133 18.31 94.41-24.47 165-111.16 157.24-193.26-3.21-34.25-20.23-63.81-47.91-83.23-23.17-16.31-52.49-24.72-84.07-24.72Z" class="cls-3"/><path d="M696.37 1031.79a66.75 66.75 0 0 1 4.85 8.4 31.35 31.35 0 0 1 3.19 8.49 7.13 7.13 0 0 1-14 2.53 7.3 7.3 0 0 1-.1-1.74 31.29 31.29 0 0 1 2.22-8.79 68.84 68.84 0 0 1 3.84-8.89Zm-32.08-12.92a75.22 75.22 0 0 1-.23 10.13 34.58 34.58 0 0 1-1.72 9.38 7.123 7.123 0 0 1-13.37-4.92 7.31 7.31 0 0 1 .74-1.48 34.7 34.7 0 0 1 6.55-6.93 74 74 0 0 1 8.03-6.18Zm-17.08-31.93a69.48 69.48 0 0 1-4.89 8.45 31.77 31.77 0 0 1-5.81 7.07 7.13 7.13 0 1 1-7.78-11.82 31.75 31.75 0 0 1 8.78-2.55 69.21 69.21 0 0 1 9.7-1.15Zm4-39.74a61.31 61.31 0 0 1-8 4.14 26.88 26.88 0 0 1-8 2.47 7.14 7.14 0 0 1-1.5-14.2 7.6 7.6 0 0 1 1.91 0 26.83 26.83 0 0 1 7.82 2.94 60.68 60.68 0 0 1 7.77 4.65Zm23.56-33.6a57.77 57.77 0 0 1-8.66-2 26.1 26.1 0 0 1-7.56-3.17 7.15 7.15 0 0 1 8.05-11.81 7.57 7.57 0 0 1 1.45 1.31 26.1 26.1 0 0 1 3.92 7.19 59.5 59.5 0 0 1 2.8 8.48Zm135.5 80.25a64.94 64.94 0 0 1 7.37 5.74 28.78 28.78 0 0 1 5.85 6.41 7.14 7.14 0 0 1-12.16 7.48 7.78 7.78 0 0 1-.75-1.67 28.89 28.89 0 0 1-.91-8.64 64 64 0 0 1 .6-9.32Zm19.68-35.64a59.15 59.15 0 0 1 8.83-.34 25.76 25.76 0 0 1 8.06 1.13 7.145 7.145 0 1 1-4.77 13.47 7 7 0 0 1-1.74-.91 25.22 25.22 0 0 1-5.57-5.94 58.73 58.73 0 0 1-4.81-7.41Zm-.46-39.69a64 64 0 0 1 6.93-6 27.55 27.55 0 0 1 7.29-4.34 7.14 7.14 0 0 1 4.83 13.44 7.56 7.56 0 0 1-1.84.39 27.62 27.62 0 0 1-8.43-.95 60.9 60.9 0 0 1-8.78-2.54Zm-20.45-29.83a69.88 69.88 0 0 1 3-9.37 32.68 32.68 0 0 1 4.19-8.23 7.13 7.13 0 0 1 11.36 8.62 7.36 7.36 0 0 1-1.19 1.24 32.39 32.39 0 0 1-8.08 4.44 69.88 69.88 0 0 1-9.28 3.3Zm-33.26-9.45a73.92 73.92 0 0 1-2-9.85 33.79 33.79 0 0 1-.36-9.42 7.13 7.13 0 1 1 13.71 3.54 33.92 33.92 0 0 1-4.89 8.08 73.29 73.29 0 0 1-6.46 7.65Z" class="cls-9"/><path d="M776.53 1077.69a12.37 12.37 0 0 1-12.33-11.22l-21.88-233a12.38 12.38 0 0 1 11.26-13.5c71.31-6.18 127.47 35.63 133.45 99.38 5.81 61.83-38.58 128-105.54 157.26a12.42 12.42 0 0 1-4.96 1.08Zm-8.32-233.46 19 201.93c48.62-27.68 79.58-77.74 75.2-124.41-4.35-45.9-43.13-77.06-94.2-77.52Zm-56.23 247.51c-64.61 0-114.28-40.75-119.84-100-5.77-61.48 36.41-125.6 102.58-155.93a12.4 12.4 0 0 1 17.5 10.11L734 1077.84a12.4 12.4 0 0 1-11.51 13.52c-3.54.26-7.05.38-10.51.38Zm-22.7-225.05c-46.92 28-76.74 77.35-72.47 122.8s41.07 76 91.28 77.47Z" class="cls-8"/><path d="M485.81 930.45c-130.86 5.38-133.44 71.73-91.88 174.1 78.6-32.86 130.63-90.53 91.88-174.1Z" class="cls-10"/><path d="M390.75 1127.45a12.36 12.36 0 0 1-11.72-8.37c-20-58.44-34.62-118-6.71-157.94 19.41-27.78 56.45-41.86 113.23-43.07a12.26 12.26 0 0 1 11.32 6.81c16.54 32.8 19.4 65.29 8.5 96.55-14.56 41.75-53.42 79-109.42 104.88a12.41 12.41 0 0 1-5.2 1.14Zm87.31-184.35c-43.7 2-71.7 12.57-85.44 32.23-19.71 28.2-9.45 76.39 5.4 122.36 42.59-22.31 72.86-52.6 84-84.42 7.79-22.48 6.47-46.05-3.96-70.17Z" class="cls-11"/><path d="M489.75 942.19a113 113 0 0 0-24.46 15.29 160.79 160.79 0 0 0-22.08 22c-13.65 16.69-25 36.06-34.43 57.24a138.61 138.61 0 0 1 4.74-34.8 159.82 159.82 0 0 1 12.88-33.46c5.65-10.72 12.64-21.15 21.85-30s20.5-16.43 33.62-19.79a12.42 12.42 0 0 1 8.29 23.3Z" class="cls-12"/><path d="M722.69 573.35c115.84-61.1 151.41-5 166.91 104.37-84.45 11.11-158.39-12.65-166.91-104.37Z" class="cls-10"/><path d="M870.46 698.91c-49.13 0-90.71-12.82-119-37.08-25.13-21.55-39-51.07-41.16-87.74a12.4 12.4 0 0 1 6.37-11.58c49.7-27.48 88.8-33.91 119.54-19.65 44.19 20.5 61.46 79.37 73.54 139.94a12.39 12.39 0 0 1-11 14.76q-14.49 1.35-28.29 1.35ZM735.74 580.39c3.1 26.1 13.8 47.14 31.87 62.64 25.57 21.94 67 32.9 115 30.82-10.26-47.22-25.6-94-56.8-108.51-21.77-10.11-51.28-5.18-90.07 15.05Z" class="cls-11"/><path d="M720.21 561.22c13-3.69 26.7-2.81 39 .22s23.7 8.54 34 15a159.35 159.35 0 0 1 28 22.46 138.77 138.77 0 0 1 21.58 27.71c-18.77-13.59-38.34-24.62-58.52-32.2a161 161 0 0 0-30.17-8 112.28 112.28 0 0 0-28.83-.92h-.45a12.42 12.42 0 0 1-4.54-24.31Z" class="cls-12"/><path d="M1237.74 984.98c-89.74-83.19-135.42-41.21-175.9 53.75 73.52 30.48 146.02 26.96 175.9-53.75Z" class="cls-10"/><path d="M1130.21 1070.4c-25.18 0-52.81-5.35-81.49-16a11.58 11.58 0 0 1-6.35-16c25.58-51.73 55.43-100.66 100.26-108.45 31.2-5.45 64.92 9.85 103.11 46.69a11.57 11.57 0 0 1 3 12c-10.86 32.56-30.51 55.84-58.4 69.2-17.5 8.38-37.84 12.56-60.13 12.56Zm-61.16-33.48c42.84 13.54 82.85 13.66 111.24.06 20.06-9.61 34.82-26 43.93-48.8-30.1-27.66-55.53-39.24-77.62-35.41-31.64 5.5-56.82 44.04-77.52 84.15Z" class="cls-11"/><path d="M1232.55 995.33a105.35 105.35 0 0 0-26.24-6.15 149.29 149.29 0 0 0-29.16-.11c-20 1.95-40.38 7.15-60.6 14.87a129.74 129.74 0 0 1 26.19-19.78 148.8 148.8 0 0 1 30.65-13.49c10.83-3.31 22.34-5.55 34.28-5.28s24.39 2.77 35.26 9.25a11.6 11.6 0 0 1-10 20.84Z" class="cls-12"/><path d="M214.28 1195.06c7.08.41 13.75 1 20.62 1.77s13.67 1.72 20.57 2.95a193 193 0 0 1 21 4.76c7.14 2.17 14.35 4.47 22.37 9.4l.91.56a17.22 17.22 0 0 1-18 29.34 18.4 18.4 0 0 1-2.61-2c-2.9-2.66-8.06-5.5-13.32-7.92a162.39 162.39 0 0 0-17.14-6.63c-6-2-12.1-3.8-18.32-5.43s-12.59-3.16-18.67-4.42h-.26a11.31 11.31 0 0 1 2.94-22.36Z" class="cls-10"/><g class="cls-2"><path d="M214.28 1195.06c7.08.41 13.75 1 20.62 1.77s13.67 1.72 20.57 2.95a193 193 0 0 1 21 4.76c7.14 2.17 14.35 4.47 22.37 9.4l.91.56a17.22 17.22 0 0 1-18 29.34 18.4 18.4 0 0 1-2.61-2c-2.9-2.66-8.06-5.5-13.32-7.92a162.39 162.39 0 0 0-17.14-6.63c-6-2-12.1-3.8-18.32-5.43s-12.59-3.16-18.67-4.42h-.26a11.31 11.31 0 0 1 2.94-22.36Z" class="cls-3"/></g><path d="M290.63 1256.26a26.93 26.93 0 0 1-14.14-4 28.15 28.15 0 0 1-4.06-3c-.71-.65-3.43-2.88-10.82-6.27a147.09 147.09 0 0 0-16.11-6.23c-5.66-1.89-11.62-3.66-17.73-5.26s-12.49-3.12-18.16-4.29a21.19 21.19 0 0 1 5.24-42c6.86.4 13.58 1 21.14 1.82 7.23.8 14.36 1.82 21.21 3a198 198 0 0 1 22 5c8.43 2.56 16 5.09 24.77 10.46l.92.56a27.09 27.09 0 0 1-14.25 50.17Zm-77-51.35a1.43 1.43 0 0 0-1.4 1.15 1.37 1.37 0 0 0 .2 1.07 1.41 1.41 0 0 0 .91.62c6.28 1.3 12.91 2.86 19.45 4.59s12.89 3.59 18.93 5.61a168.73 168.73 0 0 1 18.16 7c7.12 3.27 12.46 6.5 15.84 9.6a9.53 9.53 0 0 0 1.13.85 7.35 7.35 0 0 0 7.67-12.53l-.91-.56c-6.74-4.14-12.82-6.16-20.06-8.36a180.06 180.06 0 0 0-19.79-4.48c-6.53-1.16-13-2.1-19.95-2.86-7.21-.81-13.6-1.36-20.1-1.73Z" class="cls-11"/><path d="M230 1208.48c-39.92-145.94-207.66-26.93-207.66-26.93s131.87 157.86 207.66 26.93Z" class="cls-10"/><g class="cls-5"><path d="M229.1 1209.96c.3-.5.61-1 .9-1.48-39.92-145.94-207.66-26.93-207.66-26.93s4.49 5.37 12.27 13.29c31.47-19.99 152.9-88.47 194.49 15.12Z" class="cls-6"/></g><path d="M151.07 1270.28c-72.56 0-145.28-78.65-148.48-82.15a9.87 9.87 0 0 1 1.85-14.9c4.2-2.78 103.84-67.69 175.23-40.8 29.42 11.08 49.56 35.79 59.86 73.44a9.94 9.94 0 0 1-1 7.56c-19.67 34-45.62 52.9-77.14 56.3a94.12 94.12 0 0 1-10.32.55ZM25.7 1183.43c21.65 21 80.74 72.36 133.62 66.66 23.83-2.58 44-17 60-43-8.79-28.94-24.45-47.83-46.59-56.18-49.8-18.76-120.68 17.32-147.03 32.52Z" class="cls-11"/><path d="m230 1208.48-112.6-14.6" class="cls-10"/><path d="M228.73 1218.27a236.16 236.16 0 0 1-28.19-3.36c-9.34-1.54-18.6-3.67-27.87-5.79-18.52-4.33-37-9.07-55.27-15.24 19.25-1.31 38.32-1.18 57.33-.65 9.5.32 19 .63 28.43 1.51a237.88 237.88 0 0 1 28.11 3.94 9.91 9.91 0 0 1-2.54 19.59Z" class="cls-12"/><path d="M147.62 1270.2q19-16.83 38.41-33.33c13-11 26-21.87 39.62-32.41a9.924 9.924 0 1 1 12.13 15.71 9.76 9.76 0 0 1-1.58 1h-.08c-14.87 7.42-29.71 15.55-44.46 23.77s-29.45 16.75-44.04 25.26Z" class="cls-11"/><path d="M230.46 1210.38s-85.13 5.15-104.63 152.52c0 0 173.87-55.34 104.63-152.52Z" class="cls-10"/><g class="cls-5"><path d="M150.36 1349.21c16-120.82 84.82-127.12 87.26-127.3a107.41 107.41 0 0 0-7.16-11.53s-85.13 5.15-104.63 152.52c0 0 37.45-11.93 70.67-34.42a267.24 267.24 0 0 1-46.14 20.73Z" class="cls-6"/></g><path d="M125.83 1372.78a9.89 9.89 0 0 1-9.79-11.18c20.33-153.67 110-160.84 113.82-161.08a9.89 9.89 0 0 1 8.64 4.13c17.52 24.59 22.39 49.11 14.46 72.87-20.38 61.14-119.91 93.44-124.14 94.79a9.93 9.93 0 0 1-2.99.47Zm100-151.66c-17 3.85-69.25 23.94-87.62 126.68 27.42-11.06 83.18-37.8 96.07-76.55 5.33-16.15 2.57-32.56-8.5-50.13Z" class="cls-11"/><path d="M182.39 1274.57q9.39-17.89 19.35-35.56c6.69-11.79 13.48-23.47 21.26-35.08a10 10 0 0 1 16.54 11.08 11.16 11.16 0 0 1-1.61 1.86c-9.62 8.69-19 18.32-28.25 28s-18.33 19.65-27.29 29.7Z" class="cls-11"/><path d="M229.75 1209.95s-79.37-31.21-52.36-177.39c0 0 148.25 106.37 52.36 177.39Z" class="cls-10"/><g class="cls-5"><path d="M200.44 1051.55a294.19 294.19 0 0 0-23.05-19c-27 146.18 52.36 177.39 52.36 177.39 1.17-.86 2.27-1.74 3.36-2.61-15.82-11.64-56.9-52.94-32.67-155.78Z" class="cls-6"/></g><path d="M229.75 1219.83a9.81 9.81 0 0 1-3.61-.69c-3.55-1.4-86.63-35.94-58.46-188.38a9.87 9.87 0 0 1 15.46-6.22c3.61 2.58 88.28 64.07 88.77 128.52.19 25-12 46.85-36.28 64.83a10 10 0 0 1-5.88 1.94Zm-45.3-169.14c-14.24 103.43 29.16 138.67 44.17 147.6 16-13.25 23.66-28 23.54-45.06-.29-40.84-45.06-83.54-67.71-102.54Z" class="cls-11"/><path d="M203.88 1134.05q8.12 18.5 16.77 36.67c5.78 12.07 11.75 24.14 18.21 35.37a10 10 0 1 1-18.19 7.69c-3.82-13.45-6.66-26.65-9.39-39.93s-5.14-26.53-7.4-39.8Z" class="cls-11"/><path d="M79.33 1609.21a3.63 3.63 0 0 0 1 1.23 6 6 0 0 0 2.23 1 26.17 26.17 0 0 0 9.56 0c7.65-1.15 16.1-4.07 24.32-7.51 16.55-7 32.82-16.21 48.71-26 31.76-19.7 62.45-41.8 92.4-64.8s59.15-47.16 87.67-72.05q10.69-9.34 21.25-18.84c7.09-6.32 13.85-12.74 21.23-19.13 3.64-3.17 7.23-6.42 10.91-9.54l11.26-9.09 5.64-4.53 5.81-4.31 11.6-8.61c63-44.49 132.73-77.68 204.65-103.17q53.94-19.31 109.51-33.09a1084.08 1084.08 0 0 1 112-22.34c-74.57 15-147.58 36.88-218.23 64.16a1058.17 1058.17 0 0 0-103.3 46.8 730.37 730.37 0 0 0-95.77 59.74l-11.1 8.65-5.55 4.32-5.38 4.52-10.71 9.07c-3.5 3.11-6.89 6.32-10.34 9.48-6.87 6.19-13.74 13-20.69 19.55s-13.94 13.07-21 19.52q-42.26 38.71-86.8 74.93c-29.8 24-60.3 47.3-92.91 68.15-16.35 10.37-33.09 20.29-51.45 28.44-9.24 4-18.79 7.7-29.94 9.64a50 50 0 0 1-18.79-.07 30.61 30.61 0 0 1-10.81-4.59 28.4 28.4 0 0 1-8.51-9.21 12.39 12.39 0 0 1 21.41-12.48Z" class="cls-3"/><g class="cls-2"><ellipse cx="2034.57" cy="1255.77" class="cls-3" rx="19.77" ry="14.45" transform="rotate(-14.53 870.914 3179.102)"/></g><g class="cls-2"><ellipse cx="1943.48" cy="1205.24" class="cls-3" rx="32.14" ry="23.49" transform="rotate(-14.53 779.864 3128.553)"/></g><g class="cls-2"><ellipse cx="1738" cy="1067.9" class="cls-3" rx="25.06" ry="19.69" transform="matrix(.94 -.35 .35 .94 -784.97 452.48)"/></g><g class="cls-2"><ellipse cx="1975.53" cy="827.95" class="cls-3" rx="17.33" ry="13.62" transform="rotate(-20.69 1084.37 2136.459)"/></g><g class="cls-2"><ellipse cx="2006.81" cy="1007.88" class="cls-3" rx="19.69" ry="15.47" transform="rotate(-20.69 1115.696 2316.358)"/></g><g class="cls-2"><path d="M1299.91 715.56c2.49 6.59-2.3 14.5-10.69 17.67s-17.2.39-19.69-6.2 2.3-14.5 10.68-17.67 17.21-.39 19.7 6.2Z" class="cls-3"/></g><g class="cls-2"><ellipse cx="1528.01" cy="1175.14" class="cls-3" rx="17.88" ry="14.05" transform="rotate(-35.8 911.422 1864.58)"/></g><g class="cls-2"><ellipse cx="1567.92" cy="1004.16" class="cls-3" rx="17.74" ry="13.94" transform="rotate(-35.8 951.342 1693.615)"/></g><g class="cls-2"><ellipse cx="1024.84" cy="1455.86" class="cls-3" rx="23.56" ry="18.51" transform="matrix(.81 -.58 .58 .81 -1177.74 644.15)"/></g><g class="cls-2"><ellipse cx="1036.32" cy="1330.69" class="cls-3" rx="19.91" ry="15.65" transform="rotate(-35.8 419.775 2020.096)"/></g><g class="cls-2"><ellipse cx="845.93" cy="1575.73" class="cls-3" rx="13.1" ry="10.29" transform="rotate(-35.8 229.384 2265.102)"/></g><g class="cls-2"><ellipse cx="1040.7" cy="1101.99" class="cls-3" rx="19.91" ry="15.65" transform="rotate(-35.8 424.148 1791.406)"/></g><g class="cls-2"><ellipse cx="1214.66" cy="976.87" class="cls-3" rx="26.01" ry="20.43" transform="rotate(-35.8 598.115 1666.318)"/></g><path d="M2207.19 1292.21c-24.94 141.9 299 164.88 299 164.88S2711.37 976.84 2380.34 567 1599 219.21 1550 316s48.14 141.07 48.14 141.07 744.31 65.55 609.05 835.14Z" style="fill:#d59654" transform="translate(-519.79 -230.31)"/><g class="cls-5"><path d="M1860.55 336.69c-331.02-409.94-781.34-347.79-830.34-251-43.71 86.23 28.66 130.78 45 139.47-19.66-21.19-36-56-10.79-105.75 10.73-21.16 42.08-40.53 87.75-52.84-10.53 6.72-16.42 14.42-15.15 21.53 2.57 14.36 33.24 20.89 68.51 14.59s61.79-23.05 59.23-37.41c-.92-5.15-5.51-9.27-12.58-12.17 160.69-4 393.68 63.68 584.21 299.59 307.74 381.06 117 827.52 117 827.52s-213.65-15.16-267.18-98.77c6.56 124.49 300.25 145.33 300.25 145.33s205.12-480.25-125.91-890.09Z" class="cls-6"/></g><g class="cls-2"><path d="M1986.41 1226.78s27.94-65.49 46.57-168.67c-33.89-32.22-85.36-58.81-139.45-80.55a116.77 116.77 0 0 1-73-118.45c11.47-132.38 10.9-299.17-103.84-441.25-258.76-320.47-609.48-276.96-656.48-202.09a117 117 0 0 0 18.07 11s744.34 65.55 609.08 835.14c-24.9 141.89 299.05 164.87 299.05 164.87Z" class="cls-3"/></g><path d="M1986.41 1240.93h-1c-9.12-.65-224.07-16.85-292.28-104.19-18-23.06-24.63-49-19.67-77.25 40.2-228.73 5.49-416.57-103.17-558.3-176-229.61-490.07-260-493.22-260.3a14.23 14.23 0 0 1-4.62-1.22c-2-.9-48.43-22.51-64.73-69-9.89-28.22-6.58-59 9.83-91.34 19.26-38 84.59-67.24 170.49-76.3 187.66-19.78 465.77 55.12 683.53 324.75 173.83 215.25 199.37 449.71 190.18 608.49-9.95 171.8-60.19 291.11-62.32 296.11a14.16 14.16 0 0 1-13.02 8.55Zm-299-179 13.94 2.45c-3.56 20.25 1.06 38.22 14.1 54.93 52.78 67.58 218.62 88.17 261.68 92.44 11.88-31.41 48.46-138 56.42-278.16 8.73-153.52-16.11-380.16-184-588-210.63-260.9-478.34-333.45-658.54-314.44-85.62 9-136.13 37.12-148.21 60.94-12.75 25.16-15.59 48.36-8.43 69 10.58 30.47 40.13 47.75 47.94 51.87 15.26 1.6 89.86 10.72 184 44.29 95.78 34.16 230.13 101.18 326.3 226.51 113.8 148.31 150.38 343.66 108.73 580.63Z" class="cls-3"/><path d="M1986.41 1226.78s-63.38 71.56-188.6 32.72-154.56-125.39-110.41-197.6 388.81 18.84 299.01 164.88Z" class="cls-1"/><g class="cls-2"><path d="M1986.41 1226.78s-63.38 71.56-188.6 32.72-154.56-125.39-110.41-197.6 388.81 18.84 299.01 164.88Z" class="cls-3"/></g><path d="M1869.98 1285.32c-22.49 0-47.94-3.48-76.36-12.3-86.64-26.87-119.61-71.69-132-104.56-13.77-36.51-8.9-77 13.71-113.94 17.09-28 59.7-32.79 92.45-32 85.53 2.23 200 45.55 235.87 111.65 17.25 31.83 15.46 66.4-5.18 100a14.14 14.14 0 0 1-1.46 2c-2.23 2.52-44.74 49.15-127.03 49.15Zm-108.92-234.54c-31.61 0-54.42 6.8-61.58 18.51-18.21 29.78-22.14 60.62-11.37 89.18 14.37 38.11 54.82 69.19 113.9 87.51 108.44 33.64 165.5-20 173.06-27.8 14.79-24.71 16-47.78 3.69-70.47-30-55.42-133.72-94.82-211.71-96.85q-3.04-.08-5.99-.08Zm225.35 176Z" class="cls-3"/><path d="M1254.31 165.3a47.22 47.22 0 0 1-4-20.07 59 59 0 0 1 3.79-20.41 47 47 0 0 1 11.3-17.75 35.62 35.62 0 0 1 18.37-9.92c-3.32 6.47-6.92 11.3-9.61 16.76a166.43 166.43 0 0 0-7.95 15.78c-2.35 5.42-4.41 11.06-6.33 17s-3.67 12-5.57 18.61Zm37.53 24.79c-2-9.2-1.56-18.7-.05-28a89.23 89.23 0 0 1 9.35-26.84 70.56 70.56 0 0 1 18.15-22.24c1.93-1.45 3.79-3 5.8-4.27s4.21-2.33 6.34-3.39a35.34 35.34 0 0 1 6.65-2.61c2.31-.65 4.57-1.3 6.9-1.72-6.34 7.27-12.73 13-17.89 19.91a155.53 155.53 0 0 0-14.55 20.76 190 190 0 0 0-11.42 23.1c-3.42 8.07-6.33 16.44-9.28 25.3ZM1821.6 794c7.82-6.29 17.1-10.44 26.67-13.51a97 97 0 0 1 30.05-4.2 76.7 76.7 0 0 1 30 6.21c2.33 1.1 4.68 2.1 6.91 3.35s4.31 2.8 6.37 4.28a37.25 37.25 0 0 1 5.8 4.94c1.78 1.83 3.53 3.63 5.11 5.59-9.92-2.63-18.48-6-27.64-7.59a158.84 158.84 0 0 0-27-3.7 196.35 196.35 0 0 0-27.69.64c-9.38.81-18.78 2.27-28.58 3.99Zm-15.72 65.46c12.25-6.34 25.79-9.91 39.52-11.93a142.65 142.65 0 0 1 41.82.24c3.46.67 7 1 10.39 2s6.82 1.85 10.19 2.88 6.6 2.56 9.85 3.91l4.86 2.09 4.61 2.62c3 1.83 6.1 3.54 9 5.52 2.79 2.16 5.47 4.45 8.17 6.64a44.34 44.34 0 0 1 3.91 3.46l3.52 3.89c2.27 2.66 4.52 5.28 6.57 8-12.41-6.37-23.53-13.22-36-17.5l-4.48-1.88-4.64-1.46c-3.11-.91-6.1-2.14-9.23-3s-6.26-1.6-9.39-2.4-6.35-1.25-9.51-1.9a238.09 238.09 0 0 0-39-3.52 332.48 332.48 0 0 0-40.16 2.34Z" style="fill:#5e1e4e"/><path d="M1401.35 745.8c100.34-52.91 131.14-4.35 144.56 90.39-73.14 9.62-137.21-10.95-144.56-90.39Z" class="cls-10"/><path d="M1529.33 854.54c-42.55 0-78.55-11.1-103-32.1-21.76-18.67-33.75-44.24-35.64-76a10.73 10.73 0 0 1 5.51-10c43-23.8 76.91-29.37 103.53-17 38.27 17.75 53.23 68.74 63.7 121.19a10.73 10.73 0 0 1-9.52 12.78q-12.63 1.15-24.58 1.13ZM1412.66 751.9c2.68 22.6 12 40.83 27.6 54.25 22.15 19 58 28.49 99.6 26.69-8.88-40.89-22.17-81.45-49.19-94-18.85-8.73-44.46-4.46-78.01 13.06Z" class="cls-11"/><path d="M1399.21 735.29c11.28-3.19 23.12-2.43 33.78.19a100.93 100.93 0 0 1 29.42 13 138.64 138.64 0 0 1 24.21 19.45 121 121 0 0 1 18.69 24c-16.26-11.77-33.21-21.32-50.69-27.88a138.86 138.86 0 0 0-26.13-6.91 97.47 97.47 0 0 0-25-.8h-.38a10.76 10.76 0 0 1-3.9-21.05Z" class="cls-12"/></svg>