<svg xmlns="http://www.w3.org/2000/svg" id="Modo_de_aislamiento" data-name="Modo de aislamiento" viewBox="0 0 2534.75 1945.86"><defs><style>.cls-1{fill:#f5e8cf}.cls-2{fill:#570000}.cls-3{opacity:.6}.cls-4{fill:#fff}.cls-5{opacity:.3}.cls-6{fill:#e9a735}.cls-8{fill:#9c6f48}.cls-9{opacity:.25}.cls-10{fill:#b19378}.cls-12{fill:#ecc39b}</style></defs><path d="M2226.7 1487.6c0 242.06-494 438.27-1103.34 438.27S20.02 1729.66 20.02 1487.6c0-97 79.38-186.68 213.71-259.23a1007.67 1007.67 0 0 1 100.28-46.94c200.33-81.51 480-132.13 789.33-132.13a2688.74 2688.74 0 0 1 308.49 17.41c357.71 41.25 640.41 152.58 747.9 294 30.61 40.21 46.97 82.79 46.97 126.89Z" class="cls-1"/><path d="M1123.34 1928.37c-295 0-572.42-45.65-781.1-128.54C132.83 1716.65 17.5 1605.76 17.5 1487.6c0-95.06 74.35-185.46 215-261.43a1013.35 1013.35 0 0 1 100.53-47.06c209.67-85.3 490.33-132.28 790.29-132.28a2696.81 2696.81 0 0 1 308.78 17.41c360.6 41.59 640.82 151.87 749.6 295 31.49 41.42 47.46 84.6 47.46 128.36 0 118.16-115.33 229-324.74 312.23-208.64 82.89-486.08 128.54-781.08 128.54Zm0-876.54c-299.33 0-579.32 46.84-788.4 131.91a1009.05 1009.05 0 0 0-100 46.83c-139 75-212.4 163.92-212.4 257 0 240.28 493.83 435.77 1100.84 435.77s1100.84-195.49 1100.84-435.77c0-42.64-15.63-84.81-46.43-125.33-52.5-69.07-149-132.62-279-183.77-130.4-51.29-291.94-89.08-467.15-109.29a2691.53 2691.53 0 0 0-308.3-17.35Z" class="cls-2"/><g class="cls-3"><path d="M1751.2 1127.18c-81.17-19.53-169.28-35-262.4-45.75a2679.64 2679.64 0 0 0-308.46-17.45c-309.35 0-589 50.64-789.35 132.1a1010.12 1010.12 0 0 0-100.29 46.94c-134.36 72.55-213.73 162.21-213.73 259.28 0 149.36 188.15 281.27 475.49 360.41-319.12-76.82-532.44-216.08-532.44-375.11 0-97 79.38-186.68 213.71-259.23a1007.67 1007.67 0 0 1 100.28-46.94c200.33-81.51 480-132.13 789.33-132.13a2688.74 2688.74 0 0 1 308.49 17.41c115.39 13.34 222.97 33.92 319.37 60.47Z" class="cls-4"/></g><path d="M1123.34 1945.87c-297.19 0-576.89-46.09-787.58-129.78-216.53-86-335.78-202.67-335.78-328.48s119.25-242.48 335.78-328.49c210.69-83.68 490.39-129.77 787.58-129.77s576.89 46.09 787.58 129.77c216.53 86 335.78 202.67 335.78 328.49s-119.25 242.47-335.78 328.48c-210.67 83.69-490.37 129.78-787.58 129.78Zm0-876.52c-292.25 0-566.71 45.08-772.81 127-197.36 78.39-310.55 184.57-310.55 291.31s113.19 212.91 310.55 291.31c206.1 81.86 480.56 127 772.81 127s566.7-45.09 772.81-127c197.36-78.4 310.55-184.57 310.55-291.31s-113.17-212.97-310.53-291.36c-206.11-81.87-480.56-126.95-772.83-126.95Z" class="cls-2"/><path d="M1120.2 1838.98c-215.11 0-417.56-31.9-570.07-89.82-157.08-59.66-243.6-140.81-243.6-228.5s86.52-168.85 243.6-228.51c152.51-57.92 355-89.82 570.07-89.82s417.56 31.9 570.06 89.82c157.09 59.66 243.6 140.81 243.6 228.51s-86.51 168.84-243.6 228.5c-152.5 57.92-354.92 89.82-570.06 89.82Zm0-606.65c-211.56 0-410.23 31.21-559.42 87.87-142.51 54.1-224.25 127.19-224.25 200.46s81.74 146.33 224.25 200.46c149.19 56.66 347.86 87.86 559.42 87.86s410.22-31.2 559.41-87.86c142.51-54.13 224.25-127.19 224.25-200.46s-81.74-146.36-224.25-200.46c-149.19-56.66-347.86-87.9-559.41-87.9Z" class="cls-2"/><g class="cls-5"><path d="m2179.75 1360.76-260.88 141.54c-301.9 185.06-628.56 202.8-859.67 152.2 17 39.55-55.24 99.29-189.62 118l125.85-134.38c-108.16-32-188.34-79.47-224.52-129l660.94-442.39c357.71 41.25 640.41 152.57 747.9 294.03Z" class="cls-2"/></g><path d="M2413.09 975.16q-9.73 13.88-19.91 26.89a651.73 651.73 0 0 1-83.27 89.24 584 584 0 0 1-56.42 44c-1.24.85-2.47 1.71-3.7 2.51-108.45 72.88-232.15 100.38-358.85 87.5-4-.33-8-.81-12-1.28l10.38-15.41 107.26-159.31c53.21.72 103.28-15 147.9-41.39a363.65 363.65 0 0 0 52.15-37.51 420.12 420.12 0 0 0 31.44-30.15c130-138.27 169.18-364.83 9.91-414.9-1.9-.57-3.79-1.14-5.74-1.66-22.57-6.35-48.88-9.29-79.28-8.11l8.68-169a310.58 310.58 0 0 1 129.7 10.72 305.91 305.91 0 0 1 109.9 60.1c124.75 106.12 171.1 316.46 11.85 557.76Z" class="cls-6"/><g class="cls-3"><path d="M2270.75 936.43a420.12 420.12 0 0 1-31.44 30.15 364.3 364.3 0 0 1-52.16 37.51c-43.15 25.56-91.37 41-142.58 41.35 35.42-6.07 68.94-19.21 99.91-37.51a363.65 363.65 0 0 0 52.15-37.51 420.12 420.12 0 0 0 31.44-30.15c130-138.27 169.18-364.83 9.91-414.9-1.9-.57-3.79-1.14-5.74-1.66-3.22-.9-6.49-1.75-9.91-2.51 19.45-2.66 36.66-5.83 52.59-1.33 1.94.52 3.84 1.09 5.74 1.66 159.27 50.07 120.1 276.63-9.91 414.9Z" class="cls-4"/></g><g class="cls-3"><path d="M2044.57 1045.44c-1.94.38-3.94.71-6 1l.66-1c1.78.09 3.58.09 5.34 0Z" class="cls-4"/><path d="m2033.26 1049.7 4.72-6.75h6.46l.61 4.95q-3 .59-6.11 1Z" class="cls-2"/></g><path d="M2161.74 332.57c0 1669.21-2076.76 1669.21-2076.76 0C84.98 159.93 549.9 20 1123.34 20s1038.4 139.93 1038.4 312.57Z" class="cls-6"/><path d="m2146.18 525.09-9.67 63.39c0 544-2032.61 544-2032.61 0l-8.49-84c98.2 481.69 1903.93 488.56 2050.77 20.61Z" class="cls-1"/><g class="cls-5"><path d="M273.17 393.19C556.73 143 1760.51 180.94 1979.34 405.79c92.61-110.63-100.47-184.33-100.47-184.33C1367.77 86.38 863.34 86.3 366.21 233.09c0 0-180.75 84.79-93.04 160.1Z" class="cls-2"/></g><g class="cls-3"><path d="M137.14 356.3c0 599.78 268.14 984 611.72 1152.84C380.62 1354.59 84.98 962.41 84.98 332.57 84.98 159.93 549.9 20 1123.34 20c378.81 0 710.3 61.08 891.67 152.31-188.86-78-494.56-128.6-839.51-128.6-573.44 0-1038.36 139.93-1038.36 312.59Z" class="cls-4"/></g><path d="m408.9 704.67 4.17 41.54a207.18 207.18 0 0 1-4.17-41.54Z" style="fill:#e4b74f" transform="translate(-317.66 -241.7)"/><path d="M92.97 505.01a210.07 210.07 0 0 1-4.23-42l5-.25 4.16 41.54Z" class="cls-2"/><path d="M1123.34 1604.48c-277.64 0-536.36-113.41-728.51-319.33-215.8-231.27-329.87-560.67-329.87-952.57 0-93.09 113.07-178.38 318.38-240.18C581.28 32.82 844.08 0 1123.34 0s542.06 32.82 740 92.4c205.31 61.8 318.37 147.09 318.37 240.18 0 391.9-114.06 721.3-329.87 952.57-192.13 205.92-450.85 319.33-728.5 319.33Zm0-1564.48C514.19 40 104.98 191.3 104.98 332.58c0 846.4 527.9 1231.9 1018.38 1231.9s1018.37-385.5 1018.37-1231.9C2141.73 191.3 1732.53 40 1123.34 40Z" class="cls-2"/><path d="M1979.34 405.79c-10.29 11.15-23.38 22-39.07 32.48-131.88 88.19-447.93 150.21-816.93 150.21-24.75 0-49.31-.28-73.54-.85-337-7.59-620.36-67.1-743.4-149.32h-.1a238.5 238.5 0 0 1-29.06-22.57c-6.45-6.6-10.72-11-12.38-12.71a3.35 3.35 0 0 0-.43-.43 4.32 4.32 0 0 0-.28-.33c72.4-79 286.63-142.54 564.16-169.14 91.37-8.77 189.57-13.56 291.85-13.56 417.67-.04 767.55 79.43 859.18 186.22Z" class="cls-8"/><path d="M1979.34 420.81a15 15 0 0 1-11.9-5.86c-90.87-104.58-446.83-180.42-847.29-180.42-390.32 0-741.84 73-841.39 174.09a14.84 14.84 0 0 1-3.24 4.9 15 15 0 0 1-21.21.14l-.26-.26q-.62-.6-1.17-1.26a15 15 0 0 1 .2-20.05c101.26-110.43 457.84-187.56 867.1-187.56 415.81 0 773.8 78.74 870.57 191.49a15 15 0 0 1-11.41 24.79Z" class="cls-2"/><g class="cls-9"><path d="M629.5 703.3c-100.19-17.37-173.5-37.14-225.3-54.54-46.21-15.52-91.24 26.12-79.4 73.41 22.21 88.7 57.79 209.08 104.7 297.56a141 141 0 0 0 106.53 73.66l142.61 18.46c38.86 5 71-30 62.5-68.24-16.16-73-24.68-156.88-21.66-228.58A108.68 108.68 0 0 0 629.5 703.3Z" class="cls-4"/></g><g class="cls-9"><path d="M774.54 1397.37c-99-39-172.92-121.53-212.74-174.85-14.16-19 1.2-45.69 24.72-43.16L711 1192.72a77.75 77.75 0 0 1 66.81 57.27l31 116.38c5.53 20.45-14.59 38.76-34.27 31Z" class="cls-4"/></g><path d="M1951.04 1248.41a618 618 0 0 1-74.56-4.57 20 20 0 1 1 4.82-39.71c205.14 24.86 388.15-60.44 515.28-240.25 110.7-167.93 129.12-336.66 50.51-462.95-60.62-97.39-169.05-148.92-282.93-134.5a20.002 20.002 0 0 1-5-39.69c129.58-16.42 252.94 42.24 321.92 153 40.18 64.56 58.4 142.33 52.66 224.89-6.38 91.95-41.34 186.66-103.92 281.5l-.36.52c-120.51 170.65-288.38 261.75-478.42 261.76Z" class="cls-2"/><path d="M1243.34 537.22c-62 6.64-107.54 32-119.92 61-12.33-29-57.89-54.34-119.91-61-175.17-26.83-326.17-52.92-311.45-159.51 46.8-131.29 379.33-135.13 431.39-12.94 52.07-122.19 384.65-118.35 431.4 12.94 14.7 106.59-136.32 132.68-311.51 159.51Z" class="cls-10"/><path d="M2000.13 1069.35h-3.82a20.002 20.002 0 0 1 .54-40c125.41 1.67 224.79-93.56 276.11-183.24 53-92.69 64.34-190.47 28.81-249.11-26.37-43.51-76.12-64.15-148-61.4a20.015 20.015 0 0 1-1.54-40c108.93-4.18 160.09 41.54 183.79 80.64 43.61 72 32.76 183-28.3 289.7-56.5 98.69-166.74 203.36-307.59 203.41Z" class="cls-2"/><path d="M1441.12 822.62c30.38-68.91 236.31-82.39 347.47-138.64 29.53-14.94 46.35-39.86 39.86-64.79-22.66-87.07-300.36-104.57-387.33-12.73-87-91.84-364.66-74.34-387.33 12.73-6.49 24.93 10.33 49.85 39.86 64.79 111.16 56.25 317.09 69.73 347.47 138.64Z" style="fill:#fdfffd" transform="translate(-317.66 -241.7)"/><path d="M1120.2 399.91a236.06 236.06 0 0 0-75-33.86c-26.38-7-53.64-10-80.73-10.09-27.08.2-54.23 3.12-79.94 9.94-12.76 3.46-25.34 7.85-36 14-5.22 3-10.08 6.61-12.8 10.12a11 11 0 0 0-2.28 4.32 4.36 4.36 0 0 0 .41 2.94 16.39 16.39 0 0 0 3.57 4.63 72.46 72.46 0 0 0 6.91 5.39 112 112 0 0 0 16.4 9.58c11.72 5.91 24.47 10.84 37.32 15.6 25.76 9.5 52.35 17.89 78.69 27.33 26.41 9.2 52.77 19.14 78.32 31.2 12.67 6.24 25.25 12.81 37 20.76s22.88 17.07 31.31 28.31c-10.38-9.43-22.28-16.53-34.6-22.62a345.42 345.42 0 0 0-38.2-15.7c-26-9.28-52.69-16.68-79.41-24.31-26.81-7.41-53.71-14.85-80.58-23.76a359.68 359.68 0 0 1-40.16-15.78 133.48 133.48 0 0 1-19.71-11.36 93.07 93.07 0 0 1-9.54-7.57 39 39 0 0 1-8.86-12 28.2 28.2 0 0 1-1.94-17.46 34.17 34.17 0 0 1 7-14.19 52.63 52.63 0 0 1 9.56-9.18 78.51 78.51 0 0 1 10.13-6.6c13.74-7.49 27.83-12.07 42-15.44a296.16 296.16 0 0 1 86-6.61 288 288 0 0 1 83.69 17.5c26.58 10.3 51.68 24.95 71.44 44.91Z" class="cls-12"/><path d="M1123.34 399.91c19.75-20 44.85-34.65 71.42-44.88a288 288 0 0 1 83.7-17.5 296.07 296.07 0 0 1 86 6.61c14.23 3.37 28.32 7.95 42 15.44a77.16 77.16 0 0 1 10.13 6.6 52.67 52.67 0 0 1 9.57 9.18 34.17 34.17 0 0 1 7 14.19 28.27 28.27 0 0 1-1.94 17.46 39 39 0 0 1-8.87 12 93 93 0 0 1-9.53 7.57 133.06 133.06 0 0 1-19.72 11.36 358.78 358.78 0 0 1-40.15 15.78c-26.87 8.91-53.77 16.35-80.58 23.76-26.73 7.63-53.43 15-79.41 24.31a345.42 345.42 0 0 0-38.2 15.7c-12.33 6.09-24.22 13.19-34.6 22.62 8.42-11.24 19.6-20.39 31.31-28.31s24.33-14.52 37-20.76c25.55-12.06 51.9-22 78.32-31.2 26.34-9.44 52.92-17.83 78.69-27.33 12.84-4.76 25.59-9.69 37.32-15.6a112 112 0 0 0 16.4-9.58 73.78 73.78 0 0 0 6.83-5.43 16.51 16.51 0 0 0 3.56-4.63 4.37 4.37 0 0 0 .42-2.94 11 11 0 0 0-2.28-4.32c-2.72-3.51-7.58-7.11-12.81-10.12-10.62-6.15-23.21-10.54-36-14-25.71-6.82-52.85-9.74-79.93-9.94-27.09.09-54.36 3-80.73 10.09a236 236 0 0 0-74.92 33.87Z" class="cls-12"/><path d="M1121.77 423.47a195.74 195.74 0 0 0-43.59-18.67 186.83 186.83 0 0 0-22.93-5.46 184.9 184.9 0 0 0-23.28-2.93c-15.5-.94-31.44-.57-45.85 3.68a46.86 46.86 0 0 0-10 4.11c-2.91 1.75-5.31 4-6.14 6.15-1.93 4 2.59 10.22 8.16 14.81l-.37-.27c11.35 7.64 24 13.81 36.58 20.07s25.51 12 38.29 18.13 25.57 12.32 38 19.39a171.06 171.06 0 0 1 17.92 11.76 59.3 59.3 0 0 1 8 7.18c2.39 2.64 4.53 5.77 5.21 9.28a19.43 19.43 0 0 0-6.17-8.33 62.72 62.72 0 0 0-8.43-6.18 169.78 169.78 0 0 0-18.59-9.82c-12.72-6-25.8-11.28-38.83-16.76s-26.14-10.86-39.1-16.74-25.81-12.21-38.08-20.18l-.23-.15-.14-.13c-3.24-2.89-6.6-5.73-9.07-10a13.17 13.17 0 0 1-1.66-3.36 12.59 12.59 0 0 1-1.07-3.83 11.82 11.82 0 0 1-.12-4.2 11.43 11.43 0 0 1 1-4.11c2.21-5.26 6.33-8.35 10.17-10.67a55.72 55.72 0 0 1 12.1-4.89c16.38-4.37 32.91-4.22 49-2.53a190.23 190.23 0 0 1 47.1 11.41 170.33 170.33 0 0 1 42.12 23.24Z" class="cls-12"/><path d="M1121.77 423.47a170.21 170.21 0 0 1 42-23.25 190 190 0 0 1 47.09-11.41c16.14-1.69 32.67-1.84 49 2.53a55.72 55.72 0 0 1 12.1 4.89c3.84 2.32 8 5.41 10.17 10.67a11.43 11.43 0 0 1 1 4.11 11.82 11.82 0 0 1-.12 4.2 12.59 12.59 0 0 1-1.07 3.83 13.17 13.17 0 0 1-1.66 3.36c-2.47 4.28-5.83 7.12-9.07 10l-.14.13-.23.15c-12.27 8-25.09 14.33-38.08 20.18s-26 11.36-39.1 16.74-26.11 10.78-38.83 16.76a169.78 169.78 0 0 0-18.59 9.82 62.72 62.72 0 0 0-8.43 6.18 19.43 19.43 0 0 0-6.17 8.33c.68-3.51 2.82-6.64 5.22-9.28a58.62 58.62 0 0 1 8-7.18 171.06 171.06 0 0 1 17.92-11.76c12.39-7.07 25.16-13.34 38-19.39s25.64-12 38.28-18.13 25.23-12.43 36.58-20.07l-.37.27c5.57-4.59 10.09-10.77 8.16-14.81-.82-2.18-3.23-4.4-6.14-6.15a46.86 46.86 0 0 0-10-4.11c-14.41-4.25-30.35-4.62-45.84-3.68a184.83 184.83 0 0 0-23.11 2.9 186.83 186.83 0 0 0-23 5.5 195.74 195.74 0 0 0-43.57 18.67Zm-195.19-45.76c-5.62 3.52-11.14 6.93-14.93 10.93-3.77 4.37-3.75 7.14-.71 11.45s7.77 8.23 12.58 12.11 10 7.74 14.91 12.34a65.2 65.2 0 0 1-18.88-6.09c-5.93-3-11.82-6.71-16.38-12.94-2.13-3.1-4-7.48-3.29-12.28a15.89 15.89 0 0 1 7-10.22 33.17 33.17 0 0 1 19.7-5.3Z" class="cls-12"/><path d="M1856.14 209.2a380.13 380.13 0 0 1 66.69 24.22c5.35 2.66 10.73 5.31 16 8.14 5.17 3.11 10.5 5.91 15.55 9.32a198.78 198.78 0 0 1 29.42 22.42c9.05 8.71 17.79 18.29 24.59 29.83a88.83 88.83 0 0 1 12.27 39.34c1.21 14.19-2.14 28.59-7.75 41a129 129 0 0 1-22.06 32.83l4.1-10.52a15.18 15.18 0 0 1-4 10.41l-.15.16a228.86 228.86 0 0 1-44.37 37l-24.09 14.75c-8.22 4.4-16.56 8.48-24.85 12.73a728.75 728.75 0 0 1-102.79 40.08c-69.86 21.82-141.1 37.27-212.76 48.88s-143.82 19.31-216 24.82c-36.11 2.92-72.28 4.59-108.44 6.33l-54.27 1.59c-18.09.61-36.19.41-54.28.68-144.73 1.17-289.66-6.85-433.28-27-71.8-10.22-143.33-23.21-213.92-41.54l-26.41-7.12-26.19-8.17c-17.53-5.11-34.7-11.79-51.9-18.14-8.59-3.24-17-7.21-25.46-10.79l-12.66-5.56c-4.18-2-8.27-4.23-12.4-6.32l-12.39-6.43a139.26 139.26 0 0 1-12.23-6.75l-23.78-15 8.06 2.44h-.1l-8.03-2.53a269.94 269.94 0 0 1-22.75-17.67 121.64 121.64 0 0 1-10.61-10.13l-10.08-10.82 2.09 2a17 17 0 0 1-3.52-3.72l.66.92a6.47 6.47 0 0 0 .72.76l-.68-.73a121 121 0 0 1-18.39-30.28 81 81 0 0 1 3.64-70.77 123.09 123.09 0 0 1 20.46-27.62c15.88-15.9 34-28.26 52.92-38.61a421.29 421.29 0 0 1 58.5-26.22 2.3 2.3 0 0 1 1.87 4.2c-18.62 10-37 20.32-54 32.27s-33.07 25.16-45.8 40.5c-12.48 15.27-21.72 33-21 50.74-.13 17.68 9.11 34.41 22 48.45l-.68-.74c.44.46.87.94 1.28 1.44l.67.91a10 10 0 0 0-2.67-2.86l2.1 2 8.95 8.73a98.6 98.6 0 0 0 9.4 8.25 245.83 245.83 0 0 0 21 14.89l-8-2.43h.1l8.06 2.45c59.09 35.83 127.21 58.63 195.59 77.53 68.6 19 139 32.56 209.81 42.69 141.8 19.93 285.42 27.91 428.82 26.75 17.93-.31 35.86-.23 53.78-.91l53.75-1.82c35.79-1.9 71.59-3.71 107.29-6.77 71.42-5.77 142.6-14.33 213.08-26.27s140.41-27 208-48.39c17.05-5 33.53-11.31 50.17-17.22 8.42-2.77 16.3-6.58 24.46-9.85 8.06-3.45 16.34-6.56 24-10.65 7.78-3.91 15.67-7.66 23.36-11.67l22.19-13.18a198.41 198.41 0 0 0 39.1-31.22l-4.13 10.56v-.39a15.08 15.08 0 0 1 4.1-10.18c14.31-15.2 24.08-33.17 23-51.34a64.42 64.42 0 0 0-7.37-27.07 129.57 129.57 0 0 0-18.1-25.22c-3.8-3.85-7.47-7.82-11.67-11.42-3.93-3.83-8.24-7.36-12.56-10.9-8.69-7-18-13.53-27.36-20-19-12.62-39.09-24.22-59.44-35.82a2.31 2.31 0 0 1-.88-3.15 2.34 2.34 0 0 1 2.65-1.1Z" class="cls-2"/><path d="M1578.82 336.85c9.63 2.41 18.53 6.92 27.06 12.3a85.79 85.79 0 0 1 22.59 21.23 61.48 61.48 0 0 1 11.69 31.49c.75 11.85-2.68 23.59-8 33.34-11.12 19.52-28 32.24-45.16 42.08a183.71 183.71 0 0 1-55.19 20.15c15.14-12.61 30.53-23.64 44.62-35.5s27.14-24.27 35-38.16a47.71 47.71 0 0 0 6.36-21.33c.17-7.29-1.71-14.9-5.19-22.5-7.26-15.24-19.86-29.46-33.78-43.1Zm-920.27 0c-13.92 13.64-26.52 27.86-33.73 43.1-3.48 7.6-5.36 15.21-5.19 22.5a47.84 47.84 0 0 0 6.36 21.33c7.83 13.89 21 26.42 35 38.16s29.48 22.89 44.62 35.5a183.71 183.71 0 0 1-55.22-20.14c-17.16-9.84-34-22.56-45.16-42.08-5.33-9.75-8.77-21.49-8-33.34a61.48 61.48 0 0 1 11.69-31.49 85.79 85.79 0 0 1 22.59-21.23c8.51-5.39 17.41-9.86 27.04-12.31Z" class="cls-10"/><ellipse cx="1823.65" cy="389.91" class="cls-10" rx="38" ry="14.57"/><ellipse cx="404.21" cy="399.9" class="cls-10" rx="38" ry="14.57"/><ellipse cx="1791.24" cy="437.86" class="cls-10" rx="24.59" ry="9"/><ellipse cx="477.85" cy="360.51" class="cls-10" rx="24.59" ry="9"/><ellipse cx="1747.1" cy="405.66" class="cls-10" rx="13.41" ry="4.62"/><path d="M518.99 415.63c0 3.15-7.41 5.71-16.56 5.71s-16.55-2.56-16.55-5.71 7.41-5.7 16.55-5.7 16.56 2.55 16.56 5.7Z" class="cls-10"/><g class="cls-5"><path d="m917.09 1546.53.51-.07c16.56 3 35 6.23 55 9.72 522 53.56 1077.51-318.28 1132.61-1115.27-49.09 69.14-158.07 146.94-381.3 218.87A77.7 77.7 0 0 0 1670 735.9c13.34 480.4-258.73 741.99-752.91 810.63Z" class="cls-2"/></g><path d="M1367.48 829.33c-337-7.59-620.36-67.1-743.4-149.32h-.1a238.5 238.5 0 0 1-29.06-22.57c-6.45-6.6-10.72-11-12.38-12.71a3.35 3.35 0 0 0-.43-.43 4.32 4.32 0 0 0-.28-.33c72.4-79 286.63-142.54 564.16-169.14l2.61 1.85C640.1 634.4 817.44 744.69 1367.48 829.33Z" class="cls-5" style="fill:#692d39" transform="translate(-317.66 -241.7)"/><g class="cls-5"><path d="M2401.24 417.4c-72.17-6.26-129.26 37.84-169 106.31-22.57-6.35-48.88-9.29-79.28-8.11l8.68-169a310.58 310.58 0 0 1 129.7 10.7 305.91 305.91 0 0 1 109.9 60.1Z" class="cls-2"/></g><g class="cls-5"><path d="M2309.91 1091.3a584 584 0 0 1-56.42 44c-1.24.85-2.47 1.71-3.7 2.51-108.45 72.87-232.15 100.37-358.85 87.49-4-.33-8-.81-12-1.28l10.38-15.41 107.26-159.31c53.21.72 103.28-15 147.9-41.39a363.65 363.65 0 0 0 52.15-37.51c23.24 59.34 60.6 104.24 113.28 120.9Z" class="cls-2"/></g><g class="cls-5"><path d="M1180.34 1823.12c-8-.38-15.94-.81-23.76-1.24-1261.74-70.08-922.85-593.51-922.85-593.51a1007.67 1007.67 0 0 1 100.28-46.94q95 132.72 222.34 219.68c-269.66 208.77-2.51 341.02 623.99 422.01Z" class="cls-2"/></g><path d="M349.52 1718.9c-82.28-36.92-100.63-174.7-41-307.77 56.79-126.65 163.74-203.42 244.93-178.69a102.4 102.4 0 0 1 12.15 4.53c1.62.65 3.24 1.3 4.86 2 320.21 130.7 118.63 632.17-220.94 479.93Z" class="cls-8"/><g class="cls-5"><path d="M349.52 1718.9c-28.29-12.68-49-37.25-61.55-69.48 265 93.07 435-213.19 313.87-395.6 274.68 149.75 75.5 612.03-252.32 465.08Z" class="cls-2"/></g><g class="cls-3"><path d="M699.99 1348.13c-26.29-30.77-62.3-56.85-109.16-75.15l-.2-.09c-10.75-4.82-23.39.26-28.43 10.91l-198.11 419.34-25-15.6 199.42-423.41 15-31.69c.11 0 .22 0 .33.11 1.4.43 2.75.86 4.1 1.4 2.59.86 5.18 1.89 7.72 3 1.62.65 3.24 1.3 4.86 2 61.48 25.16 103.82 63.95 129.47 109.18Z" class="cls-4"/></g><g class="cls-3"><path d="m553.47 1232.44-15 31.69c-73.58 5.13-157 76.39-204.77 183-41.68 93.17-45.24 188.58-15.36 250.17-54.74-54.41-61-172-9.77-286.12 56.77-126.7 163.71-203.47 244.9-178.74Z" class="cls-4"/></g><path d="M474.19 1764.05c-42.44 0-86.76-10-131.46-30-45.24-20.31-74.85-66.75-83.39-130.75-8.14-61.14 4-131.79 34-198.92s74.8-123.18 125.87-157.78c53.35-36.15 107.58-45 152.76-24.9 98.58 38.6 160.16 113.52 173.41 211 14.2 104.48-32.66 216.87-116.61 279.67-45.91 34.35-98.61 51.68-154.58 51.68Zm-117.85-60.29c92.16 41.31 181.88 34.92 252.64-18 74.6-55.8 116.23-155.71 103.6-248.62-11.57-85.13-65.89-150.72-153-184.7-.26-.1-.51-.2-.76-.32-34.37-15.41-77.32-7.63-120.94 21.93-46 31.19-86.59 82.29-114.2 143.88-55.81 124.48-41.17 252.71 32.62 285.84Z" class="cls-2"/><path d="M393.52 1741.61A120.16 120.16 0 0 1 344 1731.2a13.5 13.5 0 0 1 11.05-24.63c35.37 15.86 79.38 8 123.91-22.19 46.51-31.51 87.45-83.06 115.29-145.17s39.1-127 31.69-182.65c-7.1-53.32-30.49-91.42-65.86-107.28a13.5 13.5 0 0 1 11-24.63c44.23 19.83 73.2 65.41 81.58 128.35 8.06 60.58-4 130.63-33.82 197.26s-74.18 122.18-124.78 156.46c-34.07 23.11-68.49 34.89-100.54 34.89Z" class="cls-2"/><path d="M329.82 1720.7a13.5 13.5 0 0 1-12.2-19.25l223.72-474.67a13.505 13.505 0 0 1 24.43 11.52l-223.74 474.66a13.49 13.49 0 0 1-12.21 7.74Z" class="cls-2"/><path d="M523.76 1569.49c-10.5-79.76 85.5-158.22 214.47-175.26 122.75-16.2 231.13 29 250.38 102.27a91.72 91.72 0 0 1 2.25 11.34c.27 1.53.53 3.07.76 4.63 50.72 304.3-424.4 386.13-467.86 57.02Z" class="cls-8"/><g class="cls-5"><path d="M523.76 1569.49c-3.62-27.42 5.34-54.62 23.92-79.27 53.46 244.8 365.58 230.38 447.36 53 14.95 278.69-429.3 344.01-471.28 26.27Z" class="cls-2"/></g><g class="cls-3"><path d="M969.4 1661.92c11-34.37 14-73.92 5.93-118.07v-.19c-1.37-10.43-11.15-17.65-21.6-16.48l-411.15 46 .14-26.28 414.86-46.91 31.06-3.48c0 .1.06.18.07.29.33 1.27.64 2.5.86 3.77.56 2.38 1 4.82 1.32 7.28.27 1.53.53 3.07.76 4.63 9.69 58.47.07 108.82-22.25 149.44Z" class="cls-4"/></g><g class="cls-3"><path d="m988.61 1496.5-31.06 3.48c-38.36-53.46-131.52-83.41-234.85-69.74-90.25 11.93-164.38 53.93-197.12 105.42 15.67-67 102-126.83 212.65-141.43 122.75-16.2 231.11 29.07 250.38 102.27Z" class="cls-4"/></g><path d="M754.34 1797.79a260.24 260.24 0 0 1-95.4-17.65c-84.4-33.3-138.25-107.34-151.61-208.48-11.87-90.21 88.61-175.37 228.76-193.88 65.39-8.65 129.21-.9 179.71 21.81 53 23.82 85.47 61.34 91.49 105.66 17 93.58-11.29 176-79.61 232.15-48.02 39.44-111 60.39-173.34 60.39ZM540.21 1567.3c11.71 88.65 58.19 153.26 130.89 181.94 76.7 30.27 171.34 15.2 235.47-37.5 58.69-48.23 82.83-119.59 68-200.94 0-.27-.1-.54-.13-.81-4.31-32.67-30-61.14-72.25-80.15-44.94-20.2-102.38-27-161.76-19.17-117.64 15.53-209.32 87.27-200.19 156.64Z" class="cls-2"/><path d="M726.78 1698.41c-46.08 0-89.62-8.46-126.06-24.85-51.66-23.23-83.22-59.63-88.88-102.5a12.038 12.038 0 1 1 23.87-3.15c4.53 34.29 31.12 64 74.89 83.69 45.7 20.54 104 27.48 164.21 19.54 122.19-16.13 213.76-88.69 204.11-161.74a12.038 12.038 0 1 1 23.87-3.15c11.39 86.21-89.47 170.89-224.83 188.76a391 391 0 0 1-51.18 3.4Z" class="cls-2"/><path d="M523.4 1561.1a12.018 12.018 0 0 1-1.33-24l465.16-52.46a12.04 12.04 0 0 1 2.7 23.93l-465.16 52.45a10.59 10.59 0 0 1-1.37.08Z" class="cls-2"/></svg>